<svg width="69" height="60" viewBox="0 0 69 60" fill="none" xmlns="http://www.w3.org/2000/svg">
<path d="M68.1114 18.6959C68.0706 18.7474 68.0244 18.7954 67.9888 18.8505C67.5784 19.4938 67.0382 19.7692 66.4429 19.5844C65.8032 19.3854 65.4976 18.9322 65.4389 18.2534C65.0711 13.9334 63.367 10.2407 60.2112 7.23921C51.0423 -1.48081 35.5936 3.05957 32.5977 15.3586C31.7324 18.9091 31.9776 22.3886 33.3867 25.7632C33.6763 26.4581 33.6692 27.0516 33.321 27.7162C32.7044 28.8909 32.1482 30.0957 31.5689 31.2899C31.4658 31.5031 31.3805 31.7235 31.2597 32.0007C33.2339 32.0007 35.137 31.9705 37.0383 32.022C37.5092 32.0345 38.0565 32.2051 38.4261 32.4876C46.1859 38.4194 56.764 36.8645 62.4839 28.9406C62.7149 28.619 63.0632 28.3044 63.4257 28.1729C63.9925 27.965 64.5345 28.1783 64.8703 28.7025C65.215 29.2445 65.144 29.7918 64.7815 30.3178C63.3937 32.3259 61.7092 34.0443 59.6817 35.4038C52.7623 40.0472 44.0341 39.8713 37.2799 34.9844C37.017 34.7942 36.6438 34.6734 36.3204 34.6698C33.9944 34.6432 31.6666 34.6574 29.3389 34.6539C28.0044 34.6521 27.4073 33.7227 27.9831 32.5285C28.836 30.755 29.7262 28.9993 30.5525 27.2133C30.6982 26.9006 30.7213 26.4332 30.6022 26.1098C26.4034 14.6282 33.6994 2.16571 45.763 0.241163C56.1811 -1.42038 66.0822 5.68073 67.8627 16.0872C67.9284 16.4728 68.0297 16.8513 68.1132 17.2334C68.1114 17.7203 68.1114 18.209 68.1114 18.6959Z" fill="#3340B0"/>
<path d="M0.635963 52.3818C0.111769 51.6568 -0.0357157 50.8251 0.00693056 49.9366C0.0353614 49.3395 0.00693056 48.7406 0.0140383 48.1418C0.0318076 46.4767 1.20636 45.1243 2.84824 44.888C3.19829 44.8382 3.55368 44.8151 3.90729 44.8151C7.87339 44.8098 11.8413 44.8098 15.8074 44.8151C16.2054 44.8151 16.6017 44.8489 17.0477 44.8702C17.0477 43.9817 17.0459 43.086 17.0477 42.1922C17.0548 40.0384 18.3999 38.6185 20.5429 38.6043C24.7755 38.5776 29.0082 38.5759 33.2408 38.6061C35.3607 38.6203 36.7165 40.0348 36.7058 42.146C36.7005 43.1162 36.7947 44.1345 36.5335 45.0426C36.3007 45.8529 36.3291 46.482 36.5228 47.2959C36.8089 48.4972 36.7041 49.7926 36.7663 51.0544C40.194 51.0544 43.6838 51.0544 47.1737 51.0544C48.1937 51.0544 49.2136 51.0384 50.2318 51.0579C52.1474 51.0952 53.5174 52.3356 53.6577 54.2442C53.7288 55.2109 53.7093 56.1972 53.6062 57.1621C53.4463 58.6548 52.2344 59.7833 50.7436 59.9485C50.4806 59.977 50.2141 59.9876 49.9475 59.9894C45.8695 59.9912 41.7914 60.0125 37.7151 59.9698C37.0328 59.9627 36.3558 59.6731 35.6717 59.5327C35.4798 59.4936 35.2648 59.4847 35.0746 59.5256C34.4349 59.6642 33.8023 59.9627 33.1662 59.9698C28.978 60.0107 24.7898 60.0089 20.6015 59.9716C19.9832 59.9663 19.3719 59.6855 18.75 59.5611C18.5208 59.5149 18.2666 59.5167 18.0356 59.5629C17.4155 59.6873 16.8025 59.9663 16.1841 59.9716C11.9745 60.0089 7.76322 60 3.5519 59.9876C1.35917 59.9805 0.0140383 58.5962 0.0104844 56.3962C0.0104844 55.9093 0.0104844 55.4206 0.0104844 54.9337C0.0122614 53.608 0.0282537 53.5422 0.635963 52.3818ZM9.85289 47.5376C7.74723 47.5376 5.64157 47.5464 3.53591 47.5322C2.94775 47.5287 2.67055 47.7828 2.67055 48.3603C2.67055 48.9805 2.67232 49.6025 2.67055 50.2227C2.66877 50.8002 2.94952 51.0792 3.53413 51.0561C3.84332 51.0437 4.15428 51.0544 4.46524 51.0544C8.34428 51.0544 12.2233 51.0561 16.1024 51.0526C16.8931 51.0526 17.0423 50.898 17.0495 50.1267C17.0548 49.5723 17.0548 49.0178 17.0495 48.4634C17.0423 47.6868 16.8966 47.5393 16.1059 47.5393C14.0198 47.534 11.9355 47.5376 9.85289 47.5376ZM9.87955 57.29C11.9852 57.29 14.0909 57.2829 16.1965 57.2954C16.7794 57.2989 17.0637 57.0644 17.0495 56.4673C17.0352 55.8471 17.0335 55.2251 17.0495 54.6049C17.0654 54.0078 16.7829 53.7661 16.2036 53.7661C11.9692 53.7715 7.73657 53.7715 3.50215 53.7661C2.90688 53.7661 2.65989 54.0594 2.66522 54.6262C2.67055 55.202 2.65989 55.7795 2.66699 56.3553C2.67765 57.0963 2.86956 57.2865 3.62476 57.2865C5.71087 57.2936 7.79521 57.2918 9.87955 57.29ZM26.8723 41.2912C24.7915 41.2912 22.7107 41.3019 20.63 41.2841C20.0098 41.2788 19.7291 41.5471 19.7291 42.1495C19.7308 42.7697 19.7255 43.3899 19.7326 44.0083C19.7379 44.5432 19.9903 44.8133 20.5518 44.8133C24.7791 44.8062 29.0064 44.8062 33.2337 44.8116C33.8041 44.8116 34.0316 44.513 34.0351 43.987C34.0404 43.4112 34.044 42.8355 34.0351 42.2597C34.0245 41.4831 33.829 41.2912 33.0454 41.2894C30.9895 41.2894 28.93 41.2912 26.8723 41.2912ZM26.8545 57.29C28.9567 57.29 31.0605 57.2812 33.1626 57.2954C33.7508 57.2989 34.028 57.0377 34.0351 56.4708C34.0422 55.8506 34.0369 55.2304 34.0369 54.612C34.0369 54.0451 33.7757 53.7661 33.184 53.7661C28.978 53.7732 24.7738 53.7732 20.5678 53.7661C19.9689 53.7644 19.7273 54.0611 19.7291 54.6227C19.7291 55.1985 19.7202 55.7742 19.7308 56.35C19.7433 57.0981 19.9352 57.2883 20.6797 57.2883C22.7392 57.2936 24.7969 57.2918 26.8545 57.29ZM26.9043 47.5376C24.8022 47.5376 22.6983 47.5482 20.5962 47.5305C20.0045 47.5251 19.7344 47.7881 19.7308 48.3586C19.7273 48.9788 19.7273 49.5972 19.7308 50.2174C19.7326 50.7842 19.9938 51.0597 20.5873 51.0579C24.7915 51.049 28.9975 51.049 33.2017 51.0561C33.8041 51.0579 34.0369 50.7505 34.0387 50.1943C34.0387 49.6185 34.0476 49.0427 34.0369 48.4687C34.0245 47.7259 33.8325 47.5411 33.0791 47.5393C31.0214 47.534 28.962 47.5376 26.9043 47.5376ZM43.8064 57.29C45.9086 57.29 48.0124 57.2794 50.1145 57.2972C50.7418 57.3025 51.003 57.0395 50.9835 56.4228C50.9621 55.8044 50.971 55.1825 50.9817 54.564C50.9906 54.0469 50.7631 53.7733 50.2354 53.7733C45.985 53.7733 41.7363 53.7732 37.4859 53.7715C36.9688 53.7715 36.7094 54.0185 36.7129 54.5427C36.7183 55.1398 36.7094 55.7387 36.7147 56.3358C36.7201 57.1372 36.8746 57.2883 37.6991 57.29C39.7337 57.2936 41.7701 57.2918 43.8064 57.29Z" fill="#3340B0"/>
<path d="M9.19875 18.0561C7.82164 18.0561 6.54047 18.0472 5.2593 18.0597C4.59651 18.0668 4.01901 17.9477 3.71871 17.2724C3.42374 16.6078 3.69561 16.0907 4.12918 15.586C7.37918 11.808 10.6167 8.0193 13.8632 4.23772C14.7694 3.18215 15.5335 3.18393 16.4326 4.23239C19.6329 7.96599 22.8314 11.7014 26.0298 15.4367C26.1738 15.6056 26.3248 15.769 26.4474 15.9521C27.0516 16.8548 26.5185 17.9868 25.4292 18.033C24.2796 18.0828 23.1263 18.0508 21.9731 18.0561C21.7101 18.0561 21.4471 18.0561 21.0846 18.0561C21.0846 18.3671 21.0846 18.6248 21.0846 18.8824C21.0846 23.5579 21.0846 28.2315 21.0846 32.907C21.0846 34.453 20.7168 34.8155 19.1584 34.8155C16.39 34.8155 13.6198 34.8191 10.8513 34.8138C9.66609 34.812 9.19875 34.3446 9.19875 33.1682C9.19698 28.427 9.19698 23.6858 9.19698 18.9446C9.19875 18.6816 9.19875 18.4169 9.19875 18.0561ZM7.85007 15.3816C8.67989 15.3816 9.3569 15.3816 10.0339 15.3816C11.4857 15.3816 11.8819 15.7779 11.8819 17.2351C11.8837 21.9354 11.8819 26.634 11.8819 31.3343C11.8819 31.5902 11.8819 31.8461 11.8819 32.0984C14.1031 32.0984 16.2212 32.0984 18.3837 32.0984C18.3837 31.791 18.3837 31.528 18.3837 31.265C18.3837 26.5647 18.3837 21.8661 18.3837 17.1658C18.3837 15.8312 18.8404 15.3834 20.1891 15.3816C20.8874 15.3816 21.5875 15.3816 22.4422 15.3816C19.9563 12.4779 17.5734 9.69506 15.1461 6.86066C12.7171 9.69862 10.336 12.4797 7.85007 15.3816Z" fill="#3340B0"/>
<path d="M57.2258 11.4331C57.1423 11.5841 57.0144 11.9449 56.7834 12.2185C52.2025 17.6812 47.6127 23.135 43.0193 28.587C42.408 29.3138 41.596 29.4329 40.9865 28.9175C40.3646 28.3933 40.3486 27.6096 40.9723 26.8668C45.555 21.4077 50.1448 15.9521 54.7275 10.493C55.1646 9.97232 55.6781 9.68444 56.3569 9.935C56.9362 10.1482 57.2312 10.5872 57.2258 11.4331Z" fill="#3340B0"/>
<path d="M38.6978 14.1182C38.7102 11.4775 40.8372 9.38415 43.5008 9.39125C46.1254 9.39658 48.2897 11.5628 48.2755 14.1733C48.2612 16.766 46.049 18.9429 43.4475 18.9216C40.8177 18.8985 38.6854 16.7429 38.6978 14.1182ZM43.4333 16.2009C44.6221 16.2169 45.5763 15.3053 45.5799 14.1502C45.5834 13.0395 44.6399 12.0853 43.5115 12.0586C42.3725 12.0302 41.3739 12.9987 41.3703 14.1378C41.365 15.2698 42.2819 16.1867 43.4333 16.2009Z" fill="#3340B0"/>
<path d="M58.8022 24.9849C58.8039 27.6398 56.7072 29.7368 54.0418 29.7439C51.387 29.7492 49.2387 27.6363 49.2334 25.0151C49.2281 22.3869 51.3622 20.2579 54.0116 20.2491C56.6663 20.2384 58.7986 22.3478 58.8022 24.9849ZM54.0027 22.9377C52.8637 22.9449 51.9148 23.8743 51.9077 24.9902C51.9006 26.1187 52.901 27.0925 54.0489 27.0801C55.1755 27.0658 56.135 26.1187 56.1421 25.0098C56.1492 23.8725 55.1755 22.9306 54.0027 22.9377Z" fill="#3340B0"/>
<path d="M66.1565 22.8133C66.9259 22.8062 67.5176 23.3908 67.5034 24.1461C67.491 24.8711 66.9064 25.4611 66.1938 25.4682C65.46 25.4753 64.8203 24.8409 64.8327 24.1177C64.8434 23.4015 65.4351 22.8186 66.1565 22.8133Z" fill="#3340B0"/>
</svg>
