<svg width="1440" height="1016" viewBox="0 0 1440 1016" fill="none" xmlns="http://www.w3.org/2000/svg">
<g clip-path="url(#clip0_176_943)">
<path d="M1434.58 10.1543H3.33191V964.503L1439.08 969L1434.58 10.1543Z" fill="url(#paint0_linear_176_943)"/>
<path d="M1205.41 238.568H1201.82V261.32H1205.41V238.568Z" fill="#E2E5FF"/>
<path d="M1214.98 251.748V248.16H1192.23V251.748H1214.98Z" fill="#E2E5FF"/>
<path d="M1172.68 271.302H1169.09V294.054H1172.68V271.302Z" fill="#E2E5FF"/>
<path d="M1182.25 284.481V280.893H1159.51V284.481H1182.25Z" fill="#E2E5FF"/>
<path d="M1139.95 304.036H1136.37V326.788H1139.95V304.036Z" fill="#E2E5FF"/>
<path d="M1149.53 317.213V313.625H1126.78V317.213H1149.53Z" fill="#E2E5FF"/>
<path d="M1107.23 336.771H1103.64V359.522H1107.23V336.771Z" fill="#E2E5FF"/>
<path d="M1116.8 349.946V346.357H1094.05V349.946H1116.8Z" fill="#E2E5FF"/>
<path d="M1074.5 369.505H1070.91V392.256H1074.5V369.505Z" fill="#E2E5FF"/>
<path d="M1084.07 382.678V379.09H1061.32V382.678H1084.07Z" fill="#E2E5FF"/>
<path d="M395.017 724.046H391.429V746.797H395.017V724.046Z" fill="#E2E5FF"/>
<path d="M404.583 737.213V733.625H381.836V737.213H404.583Z" fill="#E2E5FF"/>
<path d="M362.289 756.78H358.701V779.531H362.289V756.78Z" fill="#E2E5FF"/>
<path d="M371.856 769.946V766.357H349.108V769.946H371.856Z" fill="#E2E5FF"/>
<path d="M329.561 789.514H325.974V812.266H329.561V789.514Z" fill="#E2E5FF"/>
<path d="M339.128 802.678V799.09H316.38V802.678H339.128Z" fill="#E2E5FF"/>
<path d="M296.833 822.229H293.246V844.981H296.833V822.229Z" fill="#E2E5FF"/>
<path d="M306.419 835.411V831.822H283.671V835.411H306.419Z" fill="#E2E5FF"/>
<path d="M264.105 854.963H260.518V877.715H264.105V854.963Z" fill="#E2E5FF"/>
<path d="M273.691 868.143V864.555H250.944V868.143H273.691Z" fill="#E2E5FF"/>
<path d="M538.943 0L297.272 241.718C285.879 253.112 270.708 259.392 254.583 259.392C238.457 259.392 223.305 253.112 211.893 241.718C200.501 230.323 194.222 215.148 194.222 199.02C194.222 182.891 200.501 167.736 211.893 156.322L368.205 0H365.514L210.558 154.986C186.284 179.265 186.284 218.794 210.558 243.073C222.695 255.212 238.648 261.282 254.583 261.282C270.536 261.282 286.471 255.212 298.608 243.073L541.653 0H538.943Z" fill="#E2E5FF"/>
<path d="M769.947 971.069L1009.58 731.413C1033.11 707.879 1071.41 707.879 1094.95 731.413C1118.48 754.947 1118.48 793.255 1094.95 816.789L940.704 971.069H943.395L1096.29 818.144C1108.05 806.387 1114.53 790.735 1114.53 774.111C1114.53 757.467 1108.06 741.835 1096.29 730.077C1072.02 705.798 1032.49 705.798 1008.22 730.077L767.256 971.069H769.947Z" fill="#E2E5FF"/>
<path d="M1117.7 697.457C1121.62 697.457 1124.8 694.278 1124.8 690.357C1124.8 686.436 1121.62 683.257 1117.7 683.257C1113.78 683.257 1110.6 686.436 1110.6 690.357C1110.6 694.278 1113.78 697.457 1117.7 697.457Z" fill="#E2E5FF"/>
<path d="M1251.17 563.963C1255.09 563.963 1258.27 560.784 1258.27 556.863C1258.27 552.941 1255.09 549.762 1251.17 549.762C1247.25 549.762 1244.07 552.941 1244.07 556.863C1244.07 560.784 1247.25 563.963 1251.17 563.963Z" fill="#E2E5FF"/>
<path d="M1226.8 605.363C1220.14 612.024 1209.34 612.024 1202.68 605.363C1196.02 598.701 1196.02 587.898 1202.68 581.237C1209.34 574.575 1220.14 574.575 1226.8 581.237C1233.46 587.898 1233.46 598.701 1226.8 605.363Z" stroke="#E2E5FF" stroke-width="1.3049" stroke-miterlimit="10"/>
<path d="M1165.64 671.614C1181.76 671.614 1194.84 658.539 1194.84 642.411C1194.84 626.282 1181.76 613.207 1165.64 613.207C1149.51 613.207 1136.44 626.282 1136.44 642.411C1136.44 658.539 1149.51 671.614 1165.64 671.614Z" fill="#E2E5FF"/>
<path d="M255.48 368.379C258.247 365.611 262.75 365.611 265.517 368.379C268.285 371.146 268.285 375.651 265.517 378.418C262.75 381.186 258.247 381.186 255.48 378.418C252.693 375.651 252.693 371.146 255.48 368.379Z" fill="#E2E5FF"/>
<path d="M122.011 501.873C124.778 499.105 129.282 499.105 132.049 501.873C134.816 504.641 134.816 509.145 132.049 511.913C129.282 514.68 124.778 514.68 122.011 511.913C119.225 509.145 119.225 504.641 122.011 501.873Z" fill="#E2E5FF"/>
<path d="M151.399 458.393C158.059 451.732 168.861 451.732 175.521 458.393C182.181 465.054 182.181 475.857 175.521 482.519C168.861 489.18 158.059 489.18 151.399 482.519C144.739 475.857 144.739 465.054 151.399 458.393Z" stroke="#E2E5FF" stroke-width="1.3049" stroke-miterlimit="10"/>
<path d="M212.561 450.548C228.687 450.548 241.759 437.473 241.759 421.345C241.759 405.217 228.687 392.142 212.561 392.142C196.436 392.142 183.364 405.217 183.364 421.345C183.364 437.473 196.436 450.548 212.561 450.548Z" fill="#E2E5FF"/>
<path d="M-1 789.304L417.516 370.707L416.161 369.352L-1 786.594V789.304Z" fill="#E2E5FF"/>
<path d="M-1 823.584L308.111 514.413L306.757 513.058L-1 820.874V823.584Z" fill="#E2E5FF"/>
<path d="M1400.12 0L975.34 424.857L976.695 426.193L1402.81 0H1400.12Z" fill="#E2E5FF"/>
<path d="M525.222 971.069L827.464 668.77L826.109 667.414L522.532 971.069H525.222Z" fill="#E2E5FF"/>
<path d="M1440 78.5048L1171.99 346.562L1173.35 347.898L1440 81.2151V78.5048Z" fill="#E2E5FF"/>
<path d="M1140.05 65.2612L1094.83 219.044L984.296 103.008L1140.05 65.2612Z" stroke="#E2E5FF"/>
<path d="M541.691 810.281L588.579 859.506L607.758 794.267L541.691 810.281Z" fill="#E2E5FF"/>
<path d="M669.225 719.064L683.27 733.818L689.014 714.254L669.225 719.064Z" fill="#E2E5FF"/>
<path d="M621.669 754.05L644.474 778.004L653.806 746.263L621.669 754.05Z" fill="#E2E5FF"/>
<path d="M894.236 255.708L933.739 297.184L949.902 242.233L894.236 255.708Z" fill="#E2E5FF"/>
<path d="M1001.66 178.883L1013.49 191.309L1018.34 174.837L1001.66 178.883Z" fill="#E2E5FF"/>
<path d="M961.601 208.354L980.817 228.529L988.68 201.807L961.601 208.354Z" fill="#E2E5FF"/>
<path d="M689.797 217.515H687.278V233.51H689.797V217.515Z" fill="#E2E5FF"/>
<path d="M696.534 226.788V224.268H680.542V226.788H696.534Z" fill="#E2E5FF"/>
<path d="M708.766 198.543H706.247V214.538H708.766V198.543Z" fill="#E2E5FF"/>
<path d="M715.503 207.786V205.266H699.511V207.786H715.503Z" fill="#E2E5FF"/>
<path d="M727.754 179.551H725.235V195.546H727.754V179.551Z" fill="#E2E5FF"/>
<path d="M734.491 188.803V186.283H718.499V188.803H734.491Z" fill="#E2E5FF"/>
<path d="M746.741 160.56H744.222V176.555H746.741V160.56Z" fill="#E2E5FF"/>
<path d="M753.478 169.82V167.3H737.487V169.82H753.478Z" fill="#E2E5FF"/>
<path d="M765.729 141.568H763.21V157.563H765.729V141.568Z" fill="#E2E5FF"/>
<path d="M772.466 150.837V148.317H756.474V150.837H772.466Z" fill="#E2E5FF"/>
<path d="M784.698 122.596H782.179V138.591H784.698V122.596Z" fill="#E2E5FF"/>
<path d="M791.435 131.835V129.315H775.443V131.835H791.435Z" fill="#E2E5FF"/>
<path d="M803.686 103.604H801.167V119.599H803.686V103.604Z" fill="#E2E5FF"/>
<path d="M810.423 112.852V110.332H794.431V112.852H810.423Z" fill="#E2E5FF"/>
<path d="M822.674 84.6125H820.155V100.607H822.674V84.6125Z" fill="#E2E5FF"/>
<path d="M829.411 93.8686V91.3491H813.419V93.8686H829.411Z" fill="#E2E5FF"/>
<path d="M841.662 65.6211H839.143V81.616H841.662V65.6211Z" fill="#E2E5FF"/>
<path d="M848.399 74.886V72.3665H832.407V74.886H848.399Z" fill="#E2E5FF"/>
<path d="M860.65 46.6295H858.131V62.6244H860.65V46.6295Z" fill="#E2E5FF"/>
<path d="M867.387 55.9027V53.3833H851.395V55.9027H867.387Z" fill="#E2E5FF"/>
<path d="M707.067 234.789H704.548V250.784H707.067V234.789Z" fill="#E2E5FF"/>
<path d="M713.806 244.061V241.542H697.814V244.061H713.806Z" fill="#E2E5FF"/>
<path d="M726.036 215.817H723.517V231.811H726.036V215.817Z" fill="#E2E5FF"/>
<path d="M732.774 225.059V222.54H716.783V225.059H732.774Z" fill="#E2E5FF"/>
<path d="M745.024 196.825H742.505V212.82H745.024V196.825Z" fill="#E2E5FF"/>
<path d="M751.762 206.077V203.557H735.771V206.077H751.762Z" fill="#E2E5FF"/>
<path d="M764.012 177.833H761.493V193.828H764.012V177.833Z" fill="#E2E5FF"/>
<path d="M770.75 187.094V184.574H754.758V187.094H770.75Z" fill="#E2E5FF"/>
<path d="M783 158.842H780.481V174.837H783V158.842Z" fill="#E2E5FF"/>
<path d="M789.738 168.111V165.591H773.746V168.111H789.738Z" fill="#E2E5FF"/>
<path d="M801.969 139.87H799.45V155.864H801.969V139.87Z" fill="#E2E5FF"/>
<path d="M808.707 149.108V146.589H792.715V149.108H808.707Z" fill="#E2E5FF"/>
<path d="M820.956 120.878H818.437V136.873H820.956V120.878Z" fill="#E2E5FF"/>
<path d="M827.695 130.126V127.606H811.703V130.126H827.695Z" fill="#E2E5FF"/>
<path d="M839.944 101.886H837.425V117.881H839.944V101.886Z" fill="#E2E5FF"/>
<path d="M846.683 111.142V108.623H830.691V111.142H846.683Z" fill="#E2E5FF"/>
<path d="M858.932 82.8948H856.413V98.8897H858.932V82.8948Z" fill="#E2E5FF"/>
<path d="M865.671 92.1596V89.6401H849.679V92.1596H865.671Z" fill="#E2E5FF"/>
<path d="M877.92 63.9224H875.401V79.9172H877.92V63.9224Z" fill="#E2E5FF"/>
<path d="M884.639 73.1765V70.657H868.648V73.1765H884.639Z" fill="#E2E5FF"/>
<path d="M724.338 252.082H721.819V268.077H724.338V252.082Z" fill="#E2E5FF"/>
<path d="M731.058 261.335V258.816H715.067V261.335H731.058Z" fill="#E2E5FF"/>
<path d="M743.306 233.09H740.787V249.085H743.306V233.09Z" fill="#E2E5FF"/>
<path d="M750.046 242.333V239.814H734.055V242.333H750.046Z" fill="#E2E5FF"/>
<path d="M762.294 214.099H759.775V230.094H762.294V214.099Z" fill="#E2E5FF"/>
<path d="M769.034 223.35V220.831H753.042V223.35H769.034Z" fill="#E2E5FF"/>
<path d="M781.282 195.107H778.763V211.102H781.282V195.107Z" fill="#E2E5FF"/>
<path d="M788.022 204.367V201.848H772.03V204.367H788.022Z" fill="#E2E5FF"/>
<path d="M800.27 176.116H797.751V192.111H800.27V176.116Z" fill="#E2E5FF"/>
<path d="M807.01 185.384V182.865H791.018V185.384H807.01Z" fill="#E2E5FF"/>
<path d="M819.258 157.143H816.739V173.138H819.258V157.143Z" fill="#E2E5FF"/>
<path d="M825.979 166.401V163.882H809.987V166.401H825.979Z" fill="#E2E5FF"/>
<path d="M838.227 138.152H835.708V154.147H838.227V138.152Z" fill="#E2E5FF"/>
<path d="M844.967 147.399V144.88H828.975V147.399H844.967Z" fill="#E2E5FF"/>
<path d="M857.215 119.16H854.696V135.155H857.215V119.16Z" fill="#E2E5FF"/>
<path d="M863.955 128.416V125.897H847.963V128.416H863.955Z" fill="#E2E5FF"/>
<path d="M876.203 100.168H873.684V116.163H876.203V100.168Z" fill="#E2E5FF"/>
<path d="M882.943 109.433V106.914H866.951V109.433H882.943Z" fill="#E2E5FF"/>
<path d="M895.191 81.196H892.672V97.1909H895.191V81.196Z" fill="#E2E5FF"/>
<path d="M901.911 90.4504V87.9309H885.919V90.4504H901.911Z" fill="#E2E5FF"/>
<path d="M689.797 217.515H687.278V233.51H689.797V217.515Z" fill="#E2E5FF"/>
<path d="M696.534 226.788V224.268H680.542V226.788H696.534Z" fill="#E2E5FF"/>
<path d="M783 158.842H780.481V174.837H783V158.842Z" fill="#E2E5FF"/>
<path d="M789.738 168.111V165.591H773.746V168.111H789.738Z" fill="#E2E5FF"/>
<path d="M876.203 100.168H873.684V116.163H876.203V100.168Z" fill="#E2E5FF"/>
<path d="M882.943 109.433V106.914H866.951V109.433H882.943Z" fill="#E2E5FF"/>
<path d="M683.27 862.846H680.751V878.841H683.27V862.846Z" fill="#E2E5FF"/>
<path d="M690.005 872.101V869.582H674.013V872.101H690.005Z" fill="#E2E5FF"/>
<path d="M702.258 843.854H699.739V859.849H702.258V843.854Z" fill="#E2E5FF"/>
<path d="M708.993 853.118V850.599H693.001V853.118H708.993Z" fill="#E2E5FF"/>
<path d="M721.246 824.863H718.727V840.858H721.246V824.863Z" fill="#E2E5FF"/>
<path d="M727.981 834.135V831.616H711.989V834.135H727.981Z" fill="#E2E5FF"/>
<path d="M740.215 805.891H737.696V821.885H740.215V805.891Z" fill="#E2E5FF"/>
<path d="M746.95 815.133V812.614H730.958V815.133H746.95Z" fill="#E2E5FF"/>
<path d="M759.203 786.899H756.684V802.894H759.203V786.899Z" fill="#E2E5FF"/>
<path d="M765.938 796.15V793.631H749.946V796.15H765.938Z" fill="#E2E5FF"/>
<path d="M778.191 767.907H775.672V783.902H778.191V767.907Z" fill="#E2E5FF"/>
<path d="M784.925 777.167V774.648H768.933V777.167H784.925Z" fill="#E2E5FF"/>
<path d="M797.179 748.916H794.66V764.911H797.179V748.916Z" fill="#E2E5FF"/>
<path d="M803.913 758.184V755.665H787.921V758.184H803.913Z" fill="#E2E5FF"/>
<path d="M816.147 729.924H813.628V745.919H816.147V729.924Z" fill="#E2E5FF"/>
<path d="M822.882 739.182V736.663H806.89V739.182H822.882Z" fill="#E2E5FF"/>
<path d="M835.135 710.952H832.616V726.947H835.135V710.952Z" fill="#E2E5FF"/>
<path d="M841.87 720.199V717.68H825.878V720.199H841.87Z" fill="#E2E5FF"/>
<path d="M854.123 691.96H851.604V707.955H854.123V691.96Z" fill="#E2E5FF"/>
<path d="M860.858 701.216V698.697H844.866V701.216H860.858Z" fill="#E2E5FF"/>
<path d="M700.541 880.12H698.022V896.115H700.541V880.12Z" fill="#E2E5FF"/>
<path d="M707.277 889.375V886.855H691.285V889.375H707.277Z" fill="#E2E5FF"/>
<path d="M719.529 861.128H717.01V877.123H719.529V861.128Z" fill="#E2E5FF"/>
<path d="M726.265 870.392V867.872H710.273V870.392H726.265Z" fill="#E2E5FF"/>
<path d="M738.517 842.137H735.998V858.132H738.517V842.137Z" fill="#E2E5FF"/>
<path d="M745.253 851.409V848.89H729.261V851.409H745.253Z" fill="#E2E5FF"/>
<path d="M757.485 823.164H754.966V839.159H757.485V823.164Z" fill="#E2E5FF"/>
<path d="M764.221 832.407V829.887H748.229V832.407H764.221Z" fill="#E2E5FF"/>
<path d="M776.473 804.173H773.954V820.168H776.473V804.173Z" fill="#E2E5FF"/>
<path d="M783.209 813.424V810.904H767.217V813.424H783.209Z" fill="#E2E5FF"/>
<path d="M795.461 785.181H792.942V801.176H795.461V785.181Z" fill="#E2E5FF"/>
<path d="M802.197 794.441V791.922H786.205V794.441H802.197Z" fill="#E2E5FF"/>
<path d="M814.449 766.19H811.93V782.184H814.449V766.19Z" fill="#E2E5FF"/>
<path d="M821.185 775.458V772.939H805.193V775.458H821.185Z" fill="#E2E5FF"/>
<path d="M833.418 747.217H830.899V763.212H833.418V747.217Z" fill="#E2E5FF"/>
<path d="M840.154 756.456V753.937H824.162V756.456H840.154Z" fill="#E2E5FF"/>
<path d="M852.406 728.226H849.887V744.22H852.406V728.226Z" fill="#E2E5FF"/>
<path d="M859.142 737.473V734.954H843.15V737.473H859.142Z" fill="#E2E5FF"/>
<path d="M871.394 709.234H868.875V725.229H871.394V709.234Z" fill="#E2E5FF"/>
<path d="M878.13 718.49V715.97H862.138V718.49H878.13Z" fill="#E2E5FF"/>
<path d="M717.811 897.394H715.292V913.388H717.811V897.394Z" fill="#E2E5FF"/>
<path d="M724.548 906.649V904.129H708.557V906.649H724.548Z" fill="#E2E5FF"/>
<path d="M736.799 878.402H734.28V894.397H736.799V878.402Z" fill="#E2E5FF"/>
<path d="M743.536 887.666V885.146H727.545V887.666H743.536Z" fill="#E2E5FF"/>
<path d="M755.787 859.41H753.268V875.405H755.787V859.41Z" fill="#E2E5FF"/>
<path d="M762.524 868.683V866.163H746.532V868.683H762.524Z" fill="#E2E5FF"/>
<path d="M774.756 840.438H772.237V856.433H774.756V840.438Z" fill="#E2E5FF"/>
<path d="M781.493 849.681V847.161H765.501V849.681H781.493Z" fill="#E2E5FF"/>
<path d="M793.744 821.446H791.225V837.441H793.744V821.446Z" fill="#E2E5FF"/>
<path d="M800.481 830.698V828.178H784.489V830.698H800.481Z" fill="#E2E5FF"/>
<path d="M812.732 802.455H810.213V818.45H812.732V802.455Z" fill="#E2E5FF"/>
<path d="M819.469 811.715V809.195H803.477V811.715H819.469Z" fill="#E2E5FF"/>
<path d="M831.719 783.463H829.2V799.458H831.719V783.463Z" fill="#E2E5FF"/>
<path d="M838.457 792.732V790.212H822.465V792.732H838.457Z" fill="#E2E5FF"/>
<path d="M850.688 764.491H848.169V780.486H850.688V764.491Z" fill="#E2E5FF"/>
<path d="M857.426 773.73V771.21H841.434V773.73H857.426Z" fill="#E2E5FF"/>
<path d="M869.676 745.499H867.157V761.494H869.676V745.499Z" fill="#E2E5FF"/>
<path d="M876.413 754.747V752.227H860.422V754.747H876.413Z" fill="#E2E5FF"/>
<path d="M888.664 726.508H886.145V742.503H888.664V726.508Z" fill="#E2E5FF"/>
<path d="M895.401 735.764V733.244H879.41V735.764H895.401Z" fill="#E2E5FF"/>
<path d="M683.27 862.846H680.751V878.841H683.27V862.846Z" fill="#E2E5FF"/>
<path d="M690.005 872.101V869.582H674.013V872.101H690.005Z" fill="#E2E5FF"/>
<path d="M776.473 804.173H773.954V820.168H776.473V804.173Z" fill="#E2E5FF"/>
<path d="M783.209 813.424V810.904H767.217V813.424H783.209Z" fill="#E2E5FF"/>
<path d="M869.676 745.499H867.157V761.494H869.676V745.499Z" fill="#E2E5FF"/>
<path d="M876.413 754.747V752.227H860.422V754.747H876.413Z" fill="#E2E5FF"/>
<path d="M582.972 369.568C628.908 323.623 628.908 249.13 582.972 203.184C537.035 157.239 462.557 157.239 416.62 203.185C370.683 249.13 370.683 323.623 416.62 369.568C462.557 415.514 537.035 415.514 582.972 369.568Z" stroke="#E2E5FF" stroke-miterlimit="10"/>
<path d="M1364.19 589.254C1382.12 526.798 1346.03 461.634 1283.58 443.707C1221.14 425.779 1155.99 461.877 1138.06 524.334C1120.14 586.79 1156.23 651.954 1218.67 669.881C1281.12 687.808 1346.27 651.71 1364.19 589.254Z" stroke="#E2E5FF" stroke-miterlimit="10"/>
<path d="M231.492 1016C166.094 1016 112.908 962.786 112.908 897.394C112.908 832.002 166.113 778.787 231.492 778.787C296.871 778.787 350.076 832.002 350.076 897.394C350.076 962.786 296.871 1016 231.492 1016ZM231.492 780.696C167.162 780.696 114.817 833.051 114.817 897.394C114.817 961.736 167.162 1014.09 231.492 1014.09C295.822 1014.09 348.167 961.736 348.167 897.394C348.167 833.051 295.822 780.696 231.492 780.696Z" fill="#E2E5FF"/>
<path d="M-1 452.171L451.084 0H448.393L-1 449.479V452.171Z" fill="#E2E5FF"/>
<g opacity="0.9722">
<path d="M-1 446.273L445.187 0H442.477L-1 443.562V446.273Z" fill="#E2E5FF"/>
</g>
<g opacity="0.9444">
<path d="M-1 440.356L439.271 0H436.58L-1 437.665V440.356Z" fill="#E2E5FF"/>
</g>
<g opacity="0.9167">
<path d="M-1 434.439L433.355 0H430.665L-1 431.748V434.439Z" fill="#E2E5FF"/>
</g>
<g opacity="0.8889">
<path d="M-1 428.541L427.459 0H424.749L-1 425.831V428.541Z" fill="#E2E5FF"/>
</g>
<g opacity="0.8611">
<path d="M-1 422.624L421.543 0H418.833L-1 419.914V422.624Z" fill="#E2E5FF"/>
</g>
<g opacity="0.8333">
<path d="M-1 416.707L415.627 0H412.936L-1 414.016V416.707Z" fill="#E2E5FF"/>
</g>
<g opacity="0.8056">
<path d="M-1 410.79L409.711 0H407.02L-1 408.099V410.79Z" fill="#E2E5FF"/>
</g>
<g opacity="0.7778">
<path d="M-1 404.892L403.814 0H401.104L-1 402.182V404.892Z" fill="#E2E5FF"/>
</g>
<g opacity="0.75">
<path d="M-1 398.975L397.899 0H395.208L-1 396.284V398.975Z" fill="#E2E5FF"/>
</g>
<g opacity="0.7222">
<path d="M-1 393.058L391.983 0H389.292L-1 390.367V393.058Z" fill="#E2E5FF"/>
</g>
<g opacity="0.6944">
<path d="M-1 387.16L386.086 0H383.376L-1 384.45V387.16Z" fill="#E2E5FF"/>
</g>
<g opacity="0.6667">
<path d="M-1 381.243L380.17 0H377.479L-1 378.552V381.243Z" fill="#E2E5FF"/>
</g>
<g opacity="0.6389">
<path d="M-1 375.326L374.254 0H371.564L-1 372.635V375.326Z" fill="#E2E5FF"/>
</g>
<g opacity="0.6111">
<path d="M-1 369.429L368.358 0H365.648L-1 366.718V369.429Z" fill="#E2E5FF"/>
</g>
<g opacity="0.5833">
<path d="M-1 363.512L362.442 0H359.732L-1 360.801V363.512Z" fill="#E2E5FF"/>
</g>
<g opacity="0.5556">
<path d="M-1 357.595L356.526 0H353.835L-1 354.903V357.595Z" fill="#E2E5FF"/>
</g>
<g opacity="0.5278">
<path d="M-1 351.678L350.61 0H347.919L-1 348.986V351.678Z" fill="#E2E5FF"/>
</g>
<g opacity="0.5">
<path d="M-1 345.78L344.713 0H342.003L-1 343.069V345.78Z" fill="#E2E5FF"/>
</g>
<g opacity="0.4722">
<path d="M-1 339.863L338.797 0H336.107L-1 337.172V339.863Z" fill="#E2E5FF"/>
</g>
<g opacity="0.4444">
<path d="M-1 333.946L332.882 0H330.191L-1 331.255V333.946Z" fill="#E2E5FF"/>
</g>
<g opacity="0.4167">
<path d="M-1 328.048L326.985 0H324.275L-1 325.338V328.048Z" fill="#E2E5FF"/>
</g>
<g opacity="0.3889">
<path d="M-1 322.131L321.069 0H318.378L-1 319.44V322.131Z" fill="#E2E5FF"/>
</g>
<g opacity="0.3611">
<path d="M-1 316.214L315.153 0H312.462L-1 313.523V316.214Z" fill="#E2E5FF"/>
</g>
<g opacity="0.3333">
<path d="M-1 310.316L309.257 0H306.547L-1 307.606V310.316Z" fill="#E2E5FF"/>
</g>
<g opacity="0.3056">
<path d="M-1 304.399L303.341 0H300.65L-1 301.708V304.399Z" fill="#E2E5FF"/>
</g>
<g opacity="0.2778">
<path d="M-1 298.482L297.425 0H294.734L-1 295.791V298.482Z" fill="#E2E5FF"/>
</g>
<g opacity="0.25">
<path d="M-1 292.565L291.528 0H288.818L-1 289.874V292.565Z" fill="#E2E5FF"/>
</g>
<g opacity="0.2222">
<path d="M-1 286.667L285.612 0H282.902L-1 283.957V286.667Z" fill="#E2E5FF"/>
</g>
<g opacity="0.1944">
<path d="M-1 280.75L279.696 0H277.006L-1 278.059V280.75Z" fill="#E2E5FF"/>
</g>
<g opacity="0.1667">
<path d="M-1 274.833L273.781 0H271.09L-1 272.142V274.833Z" fill="#E2E5FF"/>
</g>
<g opacity="0.1389">
<path d="M-1 268.936L267.884 0H265.174L-1 266.225V268.936Z" fill="#E2E5FF"/>
</g>
<g opacity="0.1111">
<path d="M-1 263.019L261.968 0H259.277L-1 260.327V263.019Z" fill="#E2E5FF"/>
</g>
<g opacity="0.0833">
<path d="M-1 257.102L256.052 0H253.361L-1 254.41V257.102Z" fill="#E2E5FF"/>
</g>
<g opacity="0.0556">
<path d="M-1 251.204L250.155 0H247.446L-1 248.493V251.204Z" fill="#E2E5FF"/>
</g>
<g opacity="0.0278">
<path d="M-1 245.287L244.24 0H241.549L-1 242.596V245.287Z" fill="#E2E5FF"/>
</g>
<path d="M1054.97 971.069L1440 585.97V583.947L1052.95 971.069H1054.97Z" fill="#E2E5FF"/>
<g opacity="0.9722">
<path d="M1061.16 971.069L1440 592.154V590.131L1059.14 971.069H1061.16Z" fill="#E2E5FF"/>
</g>
<g opacity="0.9444">
<path d="M1067.34 971.069L1440 598.339V596.316L1065.32 971.069H1067.34Z" fill="#E2E5FF"/>
</g>
<g opacity="0.9167">
<path d="M1073.52 971.069L1440 604.523V602.5L1071.48 971.069H1073.52Z" fill="#E2E5FF"/>
</g>
<g opacity="0.8889">
<path d="M1079.69 971.069L1440 610.707V608.665L1077.67 971.069H1079.69Z" fill="#E2E5FF"/>
</g>
<g opacity="0.8611">
<path d="M1085.87 971.069L1440 616.872V614.849L1083.85 971.069H1085.87Z" fill="#E2E5FF"/>
</g>
<g opacity="0.8333">
<path d="M1092.05 971.069L1440 623.056V621.033L1090.03 971.069H1092.05Z" fill="#E2E5FF"/>
</g>
<g opacity="0.8056">
<path d="M1098.24 971.069L1440 629.241V627.217L1096.2 971.069H1098.24Z" fill="#E2E5FF"/>
</g>
<g opacity="0.7778">
<path d="M1104.4 971.069L1440 635.425V633.401L1102.38 971.069H1104.4Z" fill="#E2E5FF"/>
</g>
<g opacity="0.75">
<path d="M1110.58 971.069L1440 641.609V639.567L1108.56 971.069H1110.58Z" fill="#E2E5FF"/>
</g>
<g opacity="0.7222">
<path d="M1116.77 971.069L1440 647.774V645.751L1114.74 971.069H1116.77Z" fill="#E2E5FF"/>
</g>
<g opacity="0.6944">
<path d="M1122.95 971.069L1440 653.958V651.935L1120.93 971.069H1122.95Z" fill="#E2E5FF"/>
</g>
<g opacity="0.6667">
<path d="M1129.13 971.069L1440 660.142V658.119L1127.09 971.069H1129.13Z" fill="#E2E5FF"/>
</g>
<g opacity="0.6389">
<path d="M1135.32 971.069L1440 666.327V664.303L1133.27 971.069H1135.32Z" fill="#E2E5FF"/>
</g>
<g opacity="0.6111">
<path d="M1141.48 971.069L1440 672.511V670.468L1139.46 971.069H1141.48Z" fill="#E2E5FF"/>
</g>
<g opacity="0.5833">
<path d="M1147.66 971.069L1440 678.676V676.653L1145.64 971.069H1147.66Z" fill="#E2E5FF"/>
</g>
<g opacity="0.5556">
<path d="M1153.85 971.069L1440 684.86V682.837L1151.82 971.069H1153.85Z" fill="#E2E5FF"/>
</g>
<g opacity="0.5278">
<path d="M1160.03 971.069L1440 691.044V689.021L1157.99 971.069H1160.03Z" fill="#E2E5FF"/>
</g>
<g opacity="0.5">
<path d="M1166.21 971.069L1440 697.228V695.205L1164.17 971.069H1166.21Z" fill="#E2E5FF"/>
</g>
<g opacity="0.4722">
<path d="M1172.38 971.069L1440 703.412V701.37L1170.35 971.069H1172.38Z" fill="#E2E5FF"/>
</g>
<g opacity="0.4444">
<path d="M1178.56 971.069L1440 709.578V707.554L1176.54 971.069H1178.56Z" fill="#E2E5FF"/>
</g>
<g opacity="0.4167">
<path d="M1184.74 971.069L1440 715.762V713.739L1182.72 971.069H1184.74Z" fill="#E2E5FF"/>
</g>
<g opacity="0.3889">
<path d="M1190.92 971.069L1440 721.946V719.923L1188.9 971.069H1190.92Z" fill="#E2E5FF"/>
</g>
<g opacity="0.3611">
<path d="M1197.09 971.069L1440 728.13V726.107L1195.07 971.069H1197.09Z" fill="#E2E5FF"/>
</g>
<g opacity="0.3333">
<path d="M1203.27 971.069L1440 734.314V732.272L1201.25 971.069H1203.27Z" fill="#E2E5FF"/>
</g>
<g opacity="0.3056">
<path d="M1209.45 971.069L1440 740.479V738.456L1207.43 971.069H1209.45Z" fill="#E2E5FF"/>
</g>
<g opacity="0.2778">
<path d="M1215.64 971.069L1440 746.664V744.64L1213.61 971.069H1215.64Z" fill="#E2E5FF"/>
</g>
<g opacity="0.25">
<path d="M1221.82 971.069L1440 752.848V750.825L1219.78 971.069H1221.82Z" fill="#E2E5FF"/>
</g>
<g opacity="0.2222">
<path d="M1228 971.069L1440 759.032V757.009L1225.96 971.069H1228Z" fill="#E2E5FF"/>
</g>
<g opacity="0.1944">
<path d="M1234.17 971.069L1440 765.216V763.174L1232.14 971.069H1234.17Z" fill="#E2E5FF"/>
</g>
<g opacity="0.1667">
<path d="M1240.35 971.069L1440 771.381V769.358L1238.33 971.069H1240.35Z" fill="#E2E5FF"/>
</g>
<g opacity="0.1389">
<path d="M1246.53 971.069L1440 777.565V775.542L1244.51 971.069H1246.53Z" fill="#E2E5FF"/>
</g>
<g opacity="0.1111">
<path d="M1252.72 971.069L1440 783.75V781.726L1250.69 971.069H1252.72Z" fill="#E2E5FF"/>
</g>
<g opacity="0.0833">
<path d="M1258.9 971.069L1440 789.934V787.911L1256.86 971.069H1258.9Z" fill="#E2E5FF"/>
</g>
<g opacity="0.0556">
<path d="M1265.06 971.069L1440 796.118V794.076L1263.04 971.069H1265.06Z" fill="#E2E5FF"/>
</g>
<g opacity="0.0278">
<path d="M1271.25 971.069L1440 802.283V800.26L1269.22 971.069H1271.25Z" fill="#E2E5FF"/>
</g>
</g>
<defs>
<linearGradient id="paint0_linear_176_943" x1="721.204" y1="10.1543" x2="721.204" y2="969" gradientUnits="userSpaceOnUse">
<stop stop-color="#E7E9FA" stop-opacity="0"/>
<stop offset="1" stop-color="#E7E9FA"/>
</linearGradient>
<clipPath id="clip0_176_943">
<rect width="1441" height="1016" fill="white" transform="translate(-1)"/>
</clipPath>
</defs>
</svg>
