<svg width="58" height="61" viewBox="0 0 58 61" fill="none" xmlns="http://www.w3.org/2000/svg">
<path d="M12.1421 3.70998C12.1421 2.81207 12.1114 1.98276 12.1523 1.15754C12.183 0.526854 12.6642 0.0845537 13.2764 0.0149323C13.8334 -0.048546 14.4292 0.309799 14.5961 0.851413C14.6677 1.08383 14.6677 1.34286 14.6718 1.59063C14.681 2.27251 14.6749 2.95541 14.6749 3.67313C20.4735 3.67313 26.2097 3.67313 32.0329 3.67313C32.0329 2.93493 32.0288 2.19265 32.0339 1.45139C32.0391 0.60569 32.5213 0.0395046 33.2574 0.0046939C34.0006 -0.0311406 34.5709 0.545283 34.6016 1.41453C34.6272 2.15681 34.6067 2.90115 34.6067 3.71101C36.3174 3.71101 37.9575 3.67825 39.5955 3.72637C40.3337 3.74787 41.0964 3.84001 41.7987 4.05911C44.57 4.92324 46.2091 7.35077 46.2121 10.5206C46.2193 17.4541 46.2142 24.3886 46.2142 31.322C46.2142 31.5882 46.2142 31.8554 46.2142 32.1411C48.4173 32.6029 50.4065 33.425 52.1152 34.8072C56.6311 38.4592 58.5127 43.2037 57.2904 48.8717C56.0414 54.6636 52.3251 58.3505 46.5295 59.6579C39.9416 61.1435 33.4191 57.7218 30.7164 51.5522C30.5464 51.1631 30.3591 51.0464 29.9444 51.0464C22.345 51.0597 14.7455 51.0566 7.14609 51.0556C3.266 51.0546 0.554033 48.3752 0.517177 44.4825C0.497725 42.4 0.513078 40.3185 0.513078 38.236C0.513078 28.9703 0.5182 19.7045 0.51001 10.4387C0.507962 7.63028 1.68734 5.52526 4.24472 4.33862C5.06579 3.95775 6.0353 3.79803 6.94952 3.73763C8.4217 3.64139 9.90413 3.71203 11.3825 3.71101C11.6067 3.70998 11.8298 3.70998 12.1421 3.70998ZM3.12369 15.7852C3.10936 16.0115 3.08786 16.1947 3.08786 16.377C3.08582 25.7052 3.08172 35.0335 3.08991 44.3617C3.09196 46.9234 4.6573 48.4827 7.21877 48.4847C14.5264 48.4919 21.8351 48.4878 29.1428 48.4857C29.3435 48.4857 29.5441 48.4683 29.7612 48.4591C29.1111 44.1334 30.0775 40.2817 32.8438 36.9675C35.6253 33.6359 39.2689 32.007 43.6179 31.8913C43.6179 26.5069 43.6179 21.1655 43.6179 15.7842C30.1297 15.7852 16.6672 15.7852 3.12369 15.7852ZM55.0637 45.9599C55.0739 39.6182 49.9632 34.4918 43.6128 34.4755C37.3228 34.4591 32.1568 39.5988 32.1435 45.8842C32.1302 52.2545 37.2265 57.4229 43.5319 57.4341C49.9131 57.4454 55.0534 52.3303 55.0637 45.9599ZM43.6476 13.1744C43.6476 12.0277 43.7019 10.9445 43.6363 9.86841C43.5125 7.8371 41.8785 6.33307 39.8402 6.30748C38.9034 6.29519 37.9667 6.3044 37.0299 6.3044C36.2457 6.3044 35.4626 6.3044 34.7285 6.3044C34.6702 6.40269 34.6517 6.4201 34.6517 6.43648C34.6425 7.14396 34.6446 7.85143 34.6231 8.55891C34.5964 9.44044 34.0702 10.0036 33.3065 9.99229C32.5387 9.98205 32.0462 9.41689 32.0391 8.52615C32.0339 7.80434 32.038 7.0815 32.038 6.34024C26.2322 6.34024 20.4981 6.34024 14.6923 6.34024C14.6923 7.09891 14.7025 7.82277 14.6903 8.5456C14.6749 9.44146 14.1743 9.99639 13.4085 9.99127C12.6437 9.98615 12.1574 9.43327 12.1452 8.53024C12.1349 7.80741 12.1431 7.0856 12.1431 6.30645C10.3198 6.30645 8.57527 6.29314 6.83179 6.31055C5.15895 6.32591 3.63251 7.38251 3.30183 9.02578C3.03156 10.366 3.0981 11.7748 3.01415 13.1754C16.6446 13.1744 30.1103 13.1744 43.6476 13.1744Z" fill="#3340B0"/>
<path d="M22.1126 26.6942C25.316 26.6942 28.5194 26.6932 31.7228 26.6952C32.6667 26.6963 33.2502 27.1734 33.2687 27.9474C33.2871 28.7409 32.6841 29.2702 31.7156 29.2712C25.2884 29.2764 18.8601 29.2774 12.4329 29.2692C11.2566 29.2682 10.5676 28.2873 11.0764 27.3751C11.3569 26.8724 11.8053 26.6871 12.3776 26.6891C15.6219 26.6993 18.8673 26.6942 22.1126 26.6942Z" fill="#3340B0"/>
<path d="M18.1619 37.5552C16.2669 37.5552 14.3719 37.5572 12.4779 37.5542C11.5094 37.5531 10.9095 37.0433 10.9228 36.2457C10.9361 35.4727 11.5228 34.972 12.4616 34.971C16.2516 34.9659 20.0405 34.9649 23.8305 34.972C24.6854 34.9731 25.2249 35.4082 25.3007 36.1065C25.3733 36.7822 24.9894 37.3637 24.3434 37.5173C24.1448 37.5644 23.9298 37.5542 23.722 37.5542C21.868 37.5562 20.0149 37.5552 18.1619 37.5552Z" fill="#3340B0"/>
<path d="M41.9604 48.5707C44.4184 46.2251 46.8386 43.9122 49.268 41.6076C49.4892 41.3977 49.7461 41.1909 50.0256 41.0864C50.5733 40.8806 51.1958 41.1335 51.4947 41.6117C51.809 42.1133 51.724 42.7829 51.2378 43.258C50.0911 44.376 48.9292 45.4787 47.7723 46.5855C46.1936 48.0946 44.614 49.6028 43.0353 51.1099C42.2337 51.8747 41.6082 51.8767 40.8311 51.1017C39.3129 49.5894 37.7957 48.0772 36.2897 46.5548C35.7932 46.0521 35.7061 45.4941 36.0051 44.9678C36.2928 44.462 36.7535 44.204 37.3094 44.3381C37.6482 44.4201 37.9861 44.6514 38.2441 44.8992C39.4839 46.0951 40.6991 47.3196 41.9604 48.5707Z" fill="#3340B0"/>
</svg>
