<svg width="85" height="85" viewBox="0 0 85 85" fill="none" xmlns="http://www.w3.org/2000/svg">
<path d="M31.5829 39.4787H16.0809C16.5701 36.2213 17.7332 33.1017 19.4961 30.3192C21.2589 27.5367 23.5827 25.1525 26.319 23.3188L31.0302 20.1605L28.1351 15.7915L23.4239 18.9498C19.4584 21.5924 16.2065 25.1731 13.9568 29.3741C11.7071 33.575 10.5292 38.2664 10.5276 43.0318V60.534C10.5276 61.93 11.0822 63.2689 12.0693 64.2561C13.0565 65.2432 14.3954 65.7978 15.7914 65.7978H31.5829C32.9789 65.7978 34.3178 65.2432 35.305 64.2561C36.2921 63.2689 36.8467 61.93 36.8467 60.534V44.7425C36.8467 43.3465 36.2921 42.0076 35.305 41.0204C34.3178 40.0333 32.9789 39.4787 31.5829 39.4787ZM68.4296 39.4787H52.9277C53.4168 36.2213 54.5799 33.1017 56.3428 30.3192C58.1056 27.5367 60.4295 25.1525 63.1658 23.3188L67.8769 20.1605L65.0081 15.7915L60.2707 18.9498C56.3051 21.5924 53.0532 25.1731 50.8035 29.3741C48.5538 33.575 47.3759 38.2664 47.3743 43.0318V60.534C47.3743 61.93 47.9289 63.2689 48.9161 64.2561C49.9032 65.2432 51.2421 65.7978 52.6381 65.7978H68.4296C69.8257 65.7978 71.1645 65.2432 72.1517 64.2561C73.1388 63.2689 73.6934 61.93 73.6934 60.534V44.7425C73.6934 43.3465 73.1388 42.0076 72.1517 41.0204C71.1645 40.0333 69.8257 39.4787 68.4296 39.4787Z" fill="#DEDEFC"/>
</svg>
