<svg width="68" height="68" viewBox="0 0 68 68" fill="none" xmlns="http://www.w3.org/2000/svg">
<g filter="url(#filter0_d_143_4112)">
<circle cx="34" cy="33" r="24" fill="#F3F3FD"/>
</g>
<path d="M46.4056 36.7441C46.2752 36.8441 46.1571 36.9674 46.0132 37.0397C45.0987 37.4953 44.1765 37.9361 43.2614 38.3904C43.1517 38.4446 43.0453 38.533 42.9749 38.6324C42.5645 39.2138 42.0669 39.6959 41.4429 40.0463C41.3809 40.0812 41.3209 40.1535 41.3009 40.2206C41.0602 41.0318 40.7291 41.3125 39.8947 41.397C39.6837 42.2263 39.3184 42.5457 38.4653 42.6484C38.1568 43.5441 37.8683 43.7951 37.0462 43.8829C36.5389 45.1065 35.9175 45.3865 34.8791 44.8593C34.044 45.6795 32.672 45.3285 32.4933 44.0642C31.5537 43.9468 31.3794 43.7932 31.0522 42.7942C30.1062 42.6619 29.7183 42.2573 29.6815 41.3467C29.6221 41.3267 29.5499 41.3144 29.4905 41.2802C29.2846 41.1602 29.0252 41.075 28.8936 40.8969C28.6909 40.6239 28.4283 40.4664 28.1514 40.3058C27.4183 39.8805 26.7923 39.3313 26.2567 38.675C26.1741 38.5737 26.0599 38.4846 25.9424 38.4265C24.6369 37.7818 23.3262 37.1462 22.0207 36.5008C21.8761 36.4292 21.7554 36.3098 21.6238 36.2124C21.6238 36.1317 21.6238 36.051 21.6238 35.971C21.8593 35.6864 21.9626 35.6632 22.3014 35.8284C23.6611 36.4905 25.0215 37.1513 26.3774 37.8218C26.5226 37.8935 26.66 38.0096 26.7626 38.1361C27.2705 38.7608 27.8507 39.2977 28.5857 39.7069C28.6845 39.2661 29.0071 39.0106 29.3156 38.7395C29.7267 38.3775 30.1274 38.0038 30.5353 37.6373C30.7212 37.4708 30.927 37.4598 31.0767 37.5998C31.2568 37.7683 31.2413 37.9858 31.0232 38.1839C30.5224 38.6395 30.0171 39.0893 29.5157 39.5443C29.3311 39.7114 29.2291 39.9121 29.2962 40.1677C29.3576 40.4013 29.5124 40.5484 29.7461 40.5852C29.859 40.6033 29.9855 40.5781 30.0971 40.5432C30.2746 40.4884 30.4359 40.4832 30.5579 40.6375C30.685 40.7982 30.6528 40.9601 30.5443 41.1266C30.3682 41.397 30.3895 41.6881 30.5837 41.8765C30.7883 42.0753 31.129 42.0953 31.3833 41.9062C31.5633 41.772 31.7356 41.7062 31.926 41.8714C32.0796 42.0049 32.0803 42.1843 31.9363 42.4128C31.7757 42.6671 31.7905 42.9588 31.9725 43.1453C32.1687 43.3466 32.4984 43.375 32.7501 43.2111C32.7837 43.1891 32.8159 43.164 32.8463 43.1382C33.0095 42.9988 33.1844 42.9755 33.3477 43.1214C33.5194 43.2743 33.5058 43.4492 33.3845 43.6402C33.1218 44.0539 33.2948 44.4863 33.7478 44.5579C34.0001 44.5979 34.1976 44.4876 34.3751 44.2791C33.9285 43.8461 33.6091 43.3556 33.8311 42.7122C34.0473 42.0869 34.5332 41.7991 35.1798 41.7675C35.3431 40.9885 35.811 40.571 36.6099 40.5323C36.77 39.7566 37.234 39.3261 38.0555 39.2881C38.1019 38.9299 38.2542 38.6234 38.5369 38.3826C39.0803 37.9193 39.8315 37.9438 40.3219 38.4633C40.5923 38.7498 40.844 39.0544 41.1234 39.3739C41.2247 39.3106 41.3448 39.2597 41.4345 39.1764C41.7049 38.9254 42.0082 38.693 42.216 38.3962C42.4767 38.0232 42.7974 37.7786 43.204 37.5915C44.0442 37.2055 44.8696 36.7854 45.7008 36.3801C46.0642 36.2027 46.1506 36.2182 46.4036 36.5028C46.4056 36.5834 46.4056 36.6634 46.4056 36.7441ZM35.1179 42.4851C34.8423 42.5257 34.6707 42.6619 34.5577 42.8703C34.4474 43.0743 34.4829 43.2795 34.6274 43.4544C34.8365 43.708 35.0501 43.9597 35.2753 44.1991C35.5031 44.4418 35.8187 44.4418 36.071 44.2191C36.3118 44.0068 36.3511 43.6964 36.1491 43.4453C35.9433 43.1891 35.7303 42.9368 35.4986 42.7038C35.3992 42.6032 35.2463 42.5561 35.1179 42.4851ZM40.5665 40.007C40.5491 39.9592 40.5342 39.8372 40.4691 39.7566C40.2432 39.4758 40.0115 39.1971 39.7592 38.9402C39.5501 38.7266 39.2319 38.7479 38.9977 38.9551C38.7686 39.1577 38.7215 39.47 38.9106 39.7095C39.1242 39.9799 39.352 40.2399 39.5894 40.4897C39.7514 40.6594 39.9625 40.7117 40.1851 40.6078C40.4103 40.5019 40.5613 40.3361 40.5665 40.007ZM39.148 41.268C39.1313 41.215 39.1274 41.1228 39.0803 41.066C38.8125 40.7472 38.5537 40.4174 38.2529 40.1315C38.0516 39.9399 37.7567 40.007 37.5386 40.2244C37.3379 40.4251 37.2907 40.7039 37.4618 40.9227C37.6883 41.2131 37.9341 41.4906 38.1897 41.7565C38.3491 41.9223 38.5659 41.9359 38.7712 41.8397C38.9977 41.7339 39.1326 41.5526 39.148 41.268ZM37.7057 42.498C37.6863 42.4457 37.6715 42.3244 37.6057 42.2431C37.3785 41.9617 37.1443 41.6836 36.8919 41.4248C36.6854 41.2131 36.3834 41.228 36.1504 41.4274C35.9084 41.6339 35.8516 41.9346 36.0414 42.1792C36.2582 42.4586 36.495 42.7232 36.737 42.9813C36.8951 43.1504 37.1068 43.1782 37.3166 43.0904C37.5469 42.9943 37.6941 42.8226 37.7057 42.498Z" fill="#3340B0"/>
<path d="M21.6244 29.2564C21.8438 28.9524 21.9464 28.9253 22.293 29.0879C24.289 30.0224 26.2877 30.951 28.2779 31.899C28.5515 32.0294 28.8019 32.0462 29.0859 31.9971C29.768 31.8797 30.4501 31.7577 31.1361 31.6706C32.5707 31.4886 33.8466 31.8829 34.9636 32.7896C35.103 32.9032 35.2153 32.9393 35.3941 32.887C36.6086 32.5315 37.8031 32.6392 38.9641 33.1058C39.321 33.2497 39.594 33.2117 39.9237 33.0155C41.834 31.881 43.759 30.771 45.6795 29.6526C45.7279 29.6242 45.7757 29.5919 45.8286 29.5732C46.0184 29.5067 46.1842 29.5435 46.2894 29.7223C46.3952 29.901 46.3494 30.065 46.1932 30.194C46.1255 30.2495 46.0442 30.2895 45.968 30.3341C43.9997 31.4802 42.0276 32.6212 40.0644 33.777C39.6998 33.9919 39.3552 34.0312 38.9628 33.8789C38.2549 33.604 37.5302 33.3814 36.757 33.4143C36.4402 33.4278 36.1253 33.4801 35.751 33.5208C35.8516 33.6318 35.902 33.6905 35.9555 33.746C36.4137 34.2113 36.8764 34.6714 37.3295 35.1419C37.8412 35.6736 37.8683 36.4261 37.4069 36.9572C36.9448 37.4896 36.1982 37.578 35.5954 37.1605C35.0062 36.752 34.4209 36.3383 33.8414 35.9156C33.7026 35.8143 33.62 35.8175 33.4955 35.9356C33.0921 36.3183 32.6849 36.6978 32.259 37.0547C32.1616 37.1366 31.9731 37.1676 31.846 37.1373C31.755 37.116 31.655 36.9604 31.6382 36.8527C31.6227 36.7546 31.6853 36.61 31.7627 36.5371C32.2319 36.095 32.7088 35.6614 33.1954 35.238C33.48 34.9909 33.7917 34.9941 34.1266 35.2277C34.741 35.6562 35.345 36.0996 35.9665 36.5177C36.1098 36.6139 36.306 36.6771 36.477 36.6758C36.708 36.6739 36.8835 36.5158 36.9565 36.2919C37.0307 36.0641 36.9919 35.8434 36.8177 35.6646C36.5079 35.3471 36.195 35.0335 35.8833 34.7185C35.5657 34.3978 35.245 34.0803 34.9301 33.757C33.7691 32.5637 32.3707 32.1526 30.7412 32.4624C30.0771 32.5889 29.4079 32.6857 28.7387 32.7819C28.6122 32.7999 28.4612 32.7825 28.3457 32.7289C26.2005 31.7319 24.058 30.7284 21.9187 29.7191C21.8038 29.6649 21.7212 29.5422 21.6238 29.4512C21.6244 29.3848 21.6244 29.3202 21.6244 29.2564Z" fill="#3340B0"/>
<path d="M34.2084 20.5597C34.7408 20.6733 35.2719 20.7907 35.8056 20.8985C36.6091 21.0611 37.4164 21.2096 38.2186 21.3793C38.6961 21.4799 38.9671 21.7884 38.9775 22.2763C38.9955 23.1372 38.9878 23.9987 38.9813 24.8603C38.9794 25.1145 38.8129 25.2797 38.6019 25.2726C38.3909 25.2662 38.2424 25.0997 38.2405 24.8402C38.236 24.0271 38.2334 23.214 38.2418 22.4015C38.2437 22.2079 38.1876 22.1085 37.9875 22.0704C36.7239 21.8284 35.4642 21.5613 34.1968 21.3431C33.9032 21.2928 33.5786 21.3825 33.2739 21.4393C32.2066 21.6381 31.143 21.8549 30.0756 22.0543C29.8427 22.0975 29.7355 22.1789 29.7401 22.4428C29.7568 23.4328 29.7433 24.4227 29.7478 25.4133C29.7568 27.5068 31.0391 29.3163 33.0152 30.0307C33.0455 30.0417 33.0771 30.0507 33.1049 30.0662C33.6966 30.3921 34.2587 30.3321 34.886 30.0824C36.3567 29.4977 37.4048 28.529 37.9604 27.0441C38.0308 26.8569 38.0779 26.6608 38.1282 26.4665C38.1998 26.1877 38.3586 26.0483 38.569 26.0903C38.8084 26.1374 38.9162 26.3387 38.8433 26.6395C38.4612 28.2186 37.5971 29.4622 36.1748 30.2605C35.5701 30.5999 34.895 30.8168 34.2439 31.0697C34.111 31.1214 33.9296 31.1265 33.7941 31.0813C32.91 30.7845 32.0155 30.5031 31.2644 29.9165C29.7872 28.762 29.0295 27.248 29.0057 25.3759C28.9934 24.3859 29.0005 23.396 29.0044 22.4054C29.0063 21.791 29.2515 21.4832 29.8549 21.3619C31.1327 21.1063 32.4124 20.8617 33.6908 20.6107C33.7354 20.6016 33.7773 20.5771 33.8206 20.5597C33.9503 20.5597 34.0793 20.5597 34.2084 20.5597Z" fill="#3340B0"/>
<path d="M37.6051 24.4898C37.5219 25.1887 37.5141 25.9082 37.3379 26.5833C37.0107 27.8365 36.1886 28.7232 35.0012 29.246C33.9944 29.6893 33.8182 29.6816 32.8283 29.1717C31.2756 28.3722 30.4954 27.0808 30.4579 25.3449C30.4425 24.613 30.4534 23.8799 30.456 23.1475C30.4573 22.7932 30.5431 22.7035 30.8955 22.6351C31.8429 22.4512 32.7857 22.2401 33.7382 22.0898C34.066 22.0381 34.4223 22.1098 34.7579 22.1698C35.549 22.3111 36.3357 22.4795 37.1243 22.6364C37.4373 22.699 37.5315 22.808 37.5335 23.1288C37.5367 23.5792 37.5341 24.0303 37.5341 24.4808C37.5574 24.4846 37.5812 24.4872 37.6051 24.4898ZM31.1994 23.3224C31.1994 24.0464 31.1807 24.746 31.2033 25.4449C31.2524 26.9531 32.0003 27.9921 33.3665 28.6206C33.7905 28.8155 34.1693 28.8245 34.601 28.6316C35.7691 28.1095 36.5306 27.2583 36.7242 25.9921C36.823 25.3462 36.7733 24.6769 36.7875 24.018C36.7926 23.787 36.7881 23.5553 36.7881 23.314C36.1002 23.1804 35.4381 23.0494 34.7746 22.9235C34.4991 22.8713 34.2093 22.7551 33.9467 22.7964C33.0341 22.9397 32.13 23.1391 31.1994 23.3224Z" fill="#3340B0"/>
<path d="M33.3684 26.3632C33.8808 25.7424 34.3765 25.1409 34.8727 24.5401C34.9237 24.4781 34.9721 24.413 35.0289 24.3568C35.1825 24.2065 35.3748 24.1955 35.5278 24.322C35.6781 24.4465 35.713 24.6498 35.5845 24.8176C35.3645 25.1048 35.1289 25.3797 34.8992 25.6585C34.5165 26.1244 34.1332 26.5897 33.7492 27.0543C33.5227 27.328 33.3394 27.3409 33.0806 27.1034C32.9148 26.9511 32.747 26.8001 32.5876 26.6413C32.4191 26.4742 32.4075 26.2541 32.5489 26.1044C32.6999 25.9444 32.8896 25.9431 33.0851 26.1057C33.1781 26.1831 33.2639 26.2677 33.3684 26.3632Z" fill="#3340B0"/>
<defs>
<filter id="filter0_d_143_4112" x="0" y="0" width="68" height="68" filterUnits="userSpaceOnUse" color-interpolation-filters="sRGB">
<feFlood flood-opacity="0" result="BackgroundImageFix"/>
<feColorMatrix in="SourceAlpha" type="matrix" values="0 0 0 0 0 0 0 0 0 0 0 0 0 0 0 0 0 0 127 0" result="hardAlpha"/>
<feOffset dy="1"/>
<feGaussianBlur stdDeviation="5"/>
<feComposite in2="hardAlpha" operator="out"/>
<feColorMatrix type="matrix" values="0 0 0 0 0 0 0 0 0 0 0 0 0 0 0 0 0 0 0.1 0"/>
<feBlend mode="normal" in2="BackgroundImageFix" result="effect1_dropShadow_143_4112"/>
<feBlend mode="normal" in="SourceGraphic" in2="effect1_dropShadow_143_4112" result="shape"/>
</filter>
</defs>
</svg>
