<svg width="53" height="52" viewBox="0 0 53 52" fill="none" xmlns="http://www.w3.org/2000/svg">
<rect x="0.5" width="52" height="52" rx="5" fill="#F3F3FD"/>
<path d="M37.1078 20.1568C37.8145 19.2278 38.7137 18.8001 39.8613 19.0371C41.0947 19.2917 41.9283 20.3335 41.9291 21.5895C41.9318 25.8135 41.9283 30.0374 41.9388 34.2614C41.9388 34.4197 42.0262 34.6183 42.1391 34.7302C43.4013 35.9837 43.8351 37.4733 43.2771 39.1589C42.7277 40.8191 41.5084 41.7996 39.7747 41.9982C38.0822 42.1923 36.7343 41.5171 35.7738 40.0965C35.7012 39.9898 35.6356 39.8779 35.5665 39.7694C27.7607 44.3424 18.8535 41.5013 14.4529 35.8087C9.96129 29.999 10.2351 22.5456 13.2126 17.6875C13.5012 17.8537 13.7899 18.0207 14.0995 18.1992C12.7621 20.5548 12.0956 23.0678 12.0702 25.7881C12.5653 25.7881 13.0315 25.7995 13.4977 25.7837C13.7593 25.775 13.9543 25.8633 14.1328 26.0497C14.5028 26.4354 14.8798 26.815 15.2699 27.1807C15.3687 27.2734 15.527 27.3512 15.6582 27.3521C16.9353 27.3643 18.2115 27.3643 19.4886 27.353C19.6119 27.3521 19.7632 27.2865 19.8533 27.1999C20.3493 26.7232 20.8374 26.2395 21.3088 25.7391C21.4138 25.6281 21.4672 25.4479 21.4951 25.2904C21.6019 24.6965 21.3928 24.2495 20.9257 23.8454C20.2924 23.297 19.716 22.6785 19.1422 22.0663C19.0022 21.9167 18.9113 21.6761 18.892 21.4688C18.8544 21.0463 18.8955 20.6177 18.8754 20.1935C18.8623 19.9049 18.969 19.7002 19.1693 19.5034C19.8866 18.801 20.5986 18.0925 21.2957 17.37C21.4077 17.2536 21.4855 17.0568 21.4908 16.8941C21.5126 16.2293 21.482 15.5619 21.5109 14.8972C21.5196 14.7012 21.6132 14.4686 21.7471 14.3269C22.2911 13.7461 22.8711 13.1976 23.4239 12.6247C23.5166 12.5285 23.5804 12.3675 23.5883 12.2328C23.6102 11.8532 23.5962 11.4709 23.5962 11.0598C22.208 11.3879 20.9301 11.9197 19.6766 12.6229C19.5034 12.3229 19.3329 12.0281 19.1623 11.7334C26.6428 7.23213 37.2713 9.79851 41.6116 18.2193C41.3186 18.3759 41.0256 18.5324 40.7177 18.6969C40.6634 18.6129 40.6127 18.5438 40.5707 18.4695C38.1504 14.2333 34.5326 11.6905 29.7436 10.7992C29.5206 10.7581 29.3596 10.8035 29.1943 10.975C28.6345 11.5567 28.0607 12.1252 27.4808 12.6877C27.3198 12.8442 27.2761 13.0078 27.2498 13.2265C27.1816 13.8082 27.3837 14.2263 27.821 14.6129C28.4324 15.1543 28.9809 15.7675 29.5687 16.3361C29.7882 16.5477 29.8958 16.7699 29.8853 17.0831C29.8643 17.726 29.8687 18.3706 29.8871 19.0144C29.8914 19.1587 29.9553 19.3354 30.0541 19.4369C30.7067 20.1113 31.3706 20.7752 32.0441 21.4286C32.1394 21.5213 32.303 21.5834 32.4377 21.5895C32.8847 21.6088 33.378 21.7129 33.7664 21.5615C34.1504 21.412 34.4933 21.0358 34.7391 20.6798C35.2639 19.9223 36.0083 19.9958 36.7579 20.0326C36.8716 20.0378 36.9809 20.1095 37.1078 20.1568ZM24.6415 10.8718C24.6415 11.4185 24.6301 11.9739 24.6458 12.5293C24.6537 12.804 24.561 13.0043 24.3677 13.1924C23.8122 13.7321 23.2629 14.2796 22.7276 14.8386C22.6288 14.9418 22.5579 15.115 22.5535 15.2584C22.5352 15.9232 22.5369 16.5897 22.55 17.2554C22.5553 17.516 22.4722 17.7111 22.2868 17.8922C21.678 18.487 21.1077 19.1237 20.47 19.6853C20.0353 20.0676 19.8568 20.4795 19.9146 21.0463C19.9382 21.2799 19.9942 21.447 20.1621 21.6114C20.8802 22.3129 21.5949 23.0179 22.2868 23.7457C22.4276 23.8935 22.5168 24.1367 22.5343 24.344C22.571 24.7883 22.5675 25.2397 22.5352 25.6849C22.5221 25.873 22.4416 26.096 22.3139 26.2298C21.6823 26.8937 21.0342 27.5428 20.3703 28.1743C20.2365 28.3012 20.0108 28.393 19.8253 28.3956C18.32 28.4131 16.8137 28.4131 15.3084 28.3956C15.1247 28.3939 14.9042 28.2959 14.7652 28.1708C14.3523 27.7991 13.9736 27.3897 13.5773 26.9987C13.5108 26.9331 13.4242 26.8465 13.3446 26.843C12.9449 26.8273 12.5452 26.836 12.1139 26.836C12.3545 29.8826 13.3683 32.5811 15.206 35.0066C15.9399 34.2701 16.637 33.5791 17.3237 32.8776C17.5117 32.686 17.7094 32.5916 17.985 32.5951C18.934 32.6082 19.8839 32.6073 20.833 32.596C21.0945 32.5925 21.2878 32.6782 21.468 32.8619C22.1564 33.5625 22.8544 34.2535 23.549 34.9472C23.9426 35.3408 24.2933 35.3425 24.6817 34.9533C24.9441 34.6909 25.231 34.4486 25.4637 34.1617C25.7961 33.7523 26.1923 33.5599 26.7163 33.6465C26.9393 33.6832 27.1011 33.5966 27.2595 33.4322C27.7895 32.882 28.324 32.3353 28.8829 31.8157C29.0334 31.6758 29.2748 31.5673 29.4786 31.562C30.4486 31.5358 31.4204 31.5376 32.3914 31.5612C32.5855 31.5656 32.8138 31.6679 32.9608 31.7991C33.3675 32.1612 33.7314 32.5715 34.1311 32.9423C34.2361 33.0403 34.4049 33.0875 34.5528 33.1182C35.1817 33.2467 35.6671 33.0176 36.0415 32.5059C36.15 32.358 36.2899 32.2286 36.4334 32.1122C36.6372 31.9478 36.7002 31.7545 36.6993 31.4912C36.6897 28.2067 36.6914 24.9213 36.6975 21.6368C36.6984 21.4032 36.6967 21.1539 36.4544 21.0971C36.2086 21.0393 35.9287 20.9825 35.6986 21.2318C35.3207 21.6403 34.9271 22.0356 34.5169 22.41C34.3857 22.5298 34.1801 22.6234 34.0043 22.6304C33.3509 22.6558 32.6949 22.6541 32.0406 22.6313C31.8744 22.6252 31.6723 22.5447 31.5534 22.4293C30.7084 21.6079 29.874 20.7752 29.0535 19.9293C28.9319 19.8043 28.8497 19.5891 28.8435 19.4124C28.8199 18.7258 28.8435 18.0374 28.8261 17.3507C28.8226 17.2081 28.75 17.0341 28.6502 16.9317C27.9356 16.1961 27.2087 15.4718 26.4775 14.7528C26.2938 14.5727 26.1976 14.3811 26.2098 14.1187C26.2264 13.7705 26.2413 13.418 26.2072 13.0717C26.1635 12.6273 26.3235 12.3089 26.6489 12.015C27.1143 11.5952 27.5437 11.1351 28.0056 10.675C27.4405 10.5123 25.2538 10.647 24.6415 10.8718ZM36.6923 33.4313C36.6678 33.4182 36.6442 33.4042 36.6197 33.3911C36.4815 33.5389 36.3354 33.6797 36.2068 33.8354C35.996 34.09 35.7424 34.1993 35.4047 34.1748C35.0356 34.1486 34.6621 34.1529 34.2921 34.1739C33.9842 34.1914 33.7506 34.0987 33.5398 33.8704C33.2145 33.5179 32.8558 33.196 32.5287 32.8452C32.3607 32.6651 32.1867 32.5846 31.9348 32.5916C31.27 32.6099 30.6035 32.6064 29.9378 32.5933C29.6938 32.5881 29.5136 32.6493 29.3378 32.8339C28.8112 33.3867 28.2706 33.9281 27.7161 34.453C27.5866 34.5754 27.367 34.7014 27.2105 34.6786C26.6244 34.5947 26.2054 34.8195 25.8652 35.2656C25.8057 35.3425 25.7165 35.3976 25.6605 35.4764C25.1855 36.1473 24.547 36.3878 23.737 36.2767C23.4851 36.2426 23.2839 36.1901 23.1029 36.0056C22.3839 35.2743 21.6587 34.5483 20.924 33.8328C20.8216 33.7331 20.6484 33.6578 20.5059 33.6543C19.7755 33.6369 19.0434 33.6351 18.313 33.6552C18.1616 33.6596 17.9797 33.7418 17.8686 33.8477C17.3543 34.3357 16.8645 34.8492 16.3554 35.3434C16.1944 35.5 16.0011 35.6224 15.8227 35.7615C16.7298 36.7893 17.643 37.6141 18.6707 38.3043C21.9675 40.519 25.5809 41.371 29.5206 40.8007C31.4633 40.5199 33.2731 39.863 34.9656 38.8755C35.1003 38.7967 35.214 38.7346 35.1817 38.53C34.9429 37.0123 35.4108 35.7388 36.5305 34.6952C36.5978 34.6331 36.68 34.5448 36.6844 34.4643C36.7019 34.1206 36.6923 33.7751 36.6923 33.4313ZM40.8839 29.964C40.1631 29.964 39.4826 29.964 38.8064 29.964C38.8064 29.6045 38.8064 29.2817 38.8064 28.9309C39.1598 28.9309 39.4957 28.9309 39.8316 28.9309C40.1762 28.9309 40.5209 28.9309 40.8576 28.9309C40.8576 28.5539 40.8576 28.2233 40.8576 27.8682C40.3337 27.8682 39.836 27.8682 39.3356 27.8682C39.3356 27.5122 39.3356 27.1815 39.3356 26.8273C39.857 26.8273 40.3547 26.8273 40.8637 26.8273C40.8637 26.4713 40.8637 26.1406 40.8637 25.7733C40.3389 25.7733 39.8325 25.7733 39.3295 25.7733C39.3295 25.4137 39.3295 25.091 39.3295 24.7324C39.8526 24.7324 40.3582 24.7324 40.8585 24.7324C40.8585 24.3641 40.8585 24.0335 40.8585 23.6783C40.3354 23.6783 39.8377 23.6783 39.3356 23.6783C39.3356 23.3223 39.3356 22.9917 39.3356 22.6374C39.8561 22.6374 40.3538 22.6374 40.8699 22.6374C40.8699 22.2123 40.9127 21.8065 40.8611 21.4128C40.7334 20.4271 39.8176 19.8323 38.879 20.0894C38.1775 20.2819 37.7384 20.9081 37.7384 21.7304C37.7367 26.0304 37.7349 30.3305 37.7428 34.6305C37.7437 34.9577 37.6343 35.1711 37.3798 35.3775C36.457 36.1298 36.0398 37.1051 36.2164 38.2973C36.4281 39.7265 37.4533 40.7176 38.9298 40.952C40.1675 41.1479 41.5347 40.4123 42.119 39.2358C42.7269 38.0113 42.5064 36.5199 41.4813 35.6067C41.0378 35.2122 40.7885 34.8282 40.8743 34.243C40.8769 34.2273 40.8533 34.208 40.8191 34.1547C40.3363 34.1547 39.8298 34.1547 39.3304 34.1547C39.3304 33.7952 39.3304 33.4724 39.3304 33.1138C39.8543 33.1138 40.3608 33.1138 40.8568 33.1138C40.8568 32.7455 40.8568 32.414 40.8568 32.0598C40.3328 32.0598 39.8342 32.0598 39.3356 32.0598C39.3356 31.7038 39.3356 31.3731 39.3356 31.0189C39.8578 31.0189 40.3555 31.0189 40.8699 31.0189C40.8751 30.9436 40.8821 30.8912 40.8821 30.8395C40.8847 30.5666 40.8839 30.2955 40.8839 29.964Z" fill="#3340B0"/>
<path d="M13.119 13.7408C13.1164 12.5704 14.0401 11.6424 15.207 11.6415C16.3782 11.6406 17.3054 12.5626 17.3071 13.7303C17.3089 14.9007 16.3843 15.8305 15.2183 15.8305C14.048 15.8305 13.1216 14.9077 13.119 13.7408ZM16.2592 13.7434C16.2645 13.1862 15.7834 12.6973 15.2209 12.6885C14.6646 12.6798 14.1704 13.167 14.1669 13.7259C14.1634 14.2857 14.6445 14.7738 15.2052 14.78C15.7606 14.787 16.2531 14.3024 16.2592 13.7434Z" fill="#3340B0"/>
<path d="M14.7084 9.56059C15.0443 9.56059 15.3653 9.56059 15.7117 9.56059C15.7117 10.0635 15.7117 10.5674 15.7117 11.0931C15.3854 11.0931 15.0565 11.0931 14.7084 11.0931C14.7084 10.5831 14.7084 10.0802 14.7084 9.56059Z" fill="#3340B0"/>
<path d="M11.0433 13.2186C11.5638 13.2186 12.0519 13.2186 12.5662 13.2186C12.5662 13.5528 12.5662 13.8825 12.5662 14.235C12.0711 14.235 11.5682 14.235 11.0433 14.235C11.0433 13.9061 11.0433 13.5764 11.0433 13.2186Z" fill="#3340B0"/>
<path d="M19.3845 14.2438C18.872 14.2438 18.3769 14.2438 17.8573 14.2438C17.8573 13.9131 17.8573 13.5834 17.8573 13.2335C18.3603 13.2335 18.8632 13.2335 19.3845 13.2335C19.3845 13.5615 19.3845 13.8834 19.3845 14.2438Z" fill="#3340B0"/>
<path d="M14.7057 17.907C14.7057 17.3971 14.7057 16.9011 14.7057 16.3807C15.0337 16.3807 15.3635 16.3807 15.7142 16.3807C15.7142 16.881 15.7142 17.3839 15.7142 17.907C15.388 17.907 15.0669 17.907 14.7057 17.907Z" fill="#3340B0"/>
<path d="M12.4516 10.2735C12.7779 10.5989 13.1137 10.9339 13.4628 11.282C13.2266 11.5016 12.9834 11.7272 12.7639 11.931C12.449 11.6144 12.1096 11.2733 11.7571 10.919C11.9609 10.7301 12.2032 10.5044 12.4516 10.2735Z" fill="#3340B0"/>
<path d="M18.0199 10.2551C18.2325 10.4747 18.4599 10.7082 18.6584 10.9129C18.3217 11.2488 17.9797 11.5899 17.6272 11.9415C17.4435 11.7474 17.2143 11.5042 17 11.2776C17.3254 10.9514 17.6683 10.6076 18.0199 10.2551Z" fill="#3340B0"/>
<path d="M12.7849 15.5007C12.9922 15.7141 13.2196 15.9477 13.4191 16.1524C13.0823 16.4874 12.7403 16.8285 12.3887 17.1784C12.2102 16.9825 11.9854 16.7349 11.7764 16.5058C12.0895 16.1944 12.4333 15.8515 12.7849 15.5007Z" fill="#3340B0"/>
<path d="M18.6952 16.5372C18.4669 16.7524 18.2246 16.9816 17.9989 17.195C17.6683 16.8644 17.3263 16.5215 16.9738 16.169C17.1986 15.9573 17.4409 15.7281 17.677 15.5051C18.005 15.8383 18.3453 16.183 18.6952 16.5372Z" fill="#3340B0"/>
<path d="M30.4041 25.8012C30.4041 25.8336 30.3997 25.8677 30.4049 25.8992C30.5309 26.7074 30.3157 27.3766 29.616 27.8515C29.4524 27.9626 29.4568 28.1026 29.5241 28.2793C29.644 28.5933 29.7454 28.9161 29.8416 29.2388C29.972 29.6736 29.7498 29.9718 29.2923 29.9762C28.638 29.9815 27.9838 29.9832 27.3304 29.9736C27.1948 29.9718 27.0487 29.936 26.9262 29.8765C26.2895 29.5686 25.65 29.2633 25.0316 28.9204C24.8646 28.8277 24.6966 28.6248 24.6529 28.4428C24.4552 27.6189 24.2986 26.7844 24.1333 25.9526C24.0791 25.6814 24.1569 25.4566 24.4071 25.3105C24.4167 25.3053 24.4237 25.2965 24.4342 25.2922C25.5311 24.7778 26.1932 23.8891 26.6061 22.7818C26.6551 22.6505 26.7251 22.5246 26.7985 22.4039C26.9813 22.1012 27.3041 22.012 27.5779 22.2263C28.4622 22.9173 29.3396 23.618 30.2038 24.3344C30.3183 24.4288 30.3831 24.6309 30.3971 24.7892C30.4242 25.1233 30.4041 25.4627 30.4041 25.8012ZM28.5856 28.8959C28.5812 28.8557 28.5847 28.7997 28.5672 28.7525C28.1377 27.5786 28.1972 27.7772 29.0317 26.9506C29.2879 26.6969 29.3326 26.4328 29.3754 26.096C29.4778 25.2948 29.2302 24.7288 28.5252 24.3169C28.1395 24.0912 27.8132 23.764 27.4502 23.4763C27.3995 23.5655 27.3653 23.6101 27.347 23.66C26.9805 24.6536 26.3892 25.4496 25.4104 25.9228C25.3343 25.9596 25.2739 26.1275 25.2844 26.2255C25.3177 26.5272 25.4279 26.8229 25.4392 27.1238C25.4655 27.8419 25.8512 28.1997 26.4828 28.4988C27.1659 28.8225 27.8237 29.0385 28.5856 28.8959Z" fill="#3340B0"/>
<path d="M39.3076 39.9321C38.1399 39.9312 37.2162 39.0041 37.217 37.8337C37.2179 36.6651 38.1442 35.7423 39.3146 35.7431C40.4823 35.744 41.4051 36.6703 41.406 37.8407C41.406 39.0067 40.4771 39.9339 39.3076 39.9321ZM39.3198 36.7919C38.7653 36.7849 38.2719 37.2713 38.2658 37.8302C38.2597 38.3865 38.7417 38.8763 39.3041 38.8851C39.8569 38.8938 40.3555 38.4031 40.359 37.8468C40.3616 37.287 39.8805 36.7989 39.3198 36.7919Z" fill="#3340B0"/>
</svg>
