<svg width="354" height="353" viewBox="0 0 354 353" fill="none" xmlns="http://www.w3.org/2000/svg">
<g filter="url(#filter0_dd_143_4191)">
<path fill-rule="evenodd" clip-rule="evenodd" d="M177 44C187.182 44 196.348 40.8946 202.744 35.9373C211.474 29.1706 220.954 19 232 19H315C326.046 19 335 27.9543 335 39V314C335 325.046 326.046 334 315 334H39C27.9543 334 19 325.046 19 314V39C19 27.9543 27.9543 19 39 19H122C133.046 19 142.526 29.1706 151.256 35.9373C157.652 40.8946 166.818 44 177 44Z" fill="white"/>
</g>
<defs>
<filter id="filter0_dd_143_4191" x="0" y="0" width="354" height="353" filterUnits="userSpaceOnUse" color-interpolation-filters="sRGB">
<feFlood flood-opacity="0" result="BackgroundImageFix"/>
<feColorMatrix in="SourceAlpha" type="matrix" values="0 0 0 0 0 0 0 0 0 0 0 0 0 0 0 0 0 0 127 0" result="hardAlpha"/>
<feOffset dx="3" dy="3"/>
<feGaussianBlur stdDeviation="8"/>
<feComposite in2="hardAlpha" operator="out"/>
<feColorMatrix type="matrix" values="0 0 0 0 0 0 0 0 0 0 0 0 0 0 0 0 0 0 0.16 0"/>
<feBlend mode="normal" in2="BackgroundImageFix" result="effect1_dropShadow_143_4191"/>
<feColorMatrix in="SourceAlpha" type="matrix" values="0 0 0 0 0 0 0 0 0 0 0 0 0 0 0 0 0 0 127 0" result="hardAlpha"/>
<feOffset dx="-3" dy="-3"/>
<feGaussianBlur stdDeviation="8"/>
<feComposite in2="hardAlpha" operator="out"/>
<feColorMatrix type="matrix" values="0 0 0 0 1 0 0 0 0 1 0 0 0 0 1 0 0 0 0.03 0"/>
<feBlend mode="normal" in2="effect1_dropShadow_143_4191" result="effect2_dropShadow_143_4191"/>
<feBlend mode="normal" in="SourceGraphic" in2="effect2_dropShadow_143_4191" result="shape"/>
</filter>
</defs>
</svg>
