<svg width="216" height="6" viewBox="0 0 216 6" fill="none" xmlns="http://www.w3.org/2000/svg">
<path d="M215.5 3L210.5 0.113249V5.88675L215.5 3ZM0.5 3.5H1.49537V2.5H0.5V3.5ZM3.48611 3.5H5.47685V2.5H3.48611V3.5ZM7.46759 3.5H9.45833V2.5H7.46759V3.5ZM11.4491 3.5H13.4398V2.5H11.4491V3.5ZM15.4306 3.5H17.4213V2.5H15.4306V3.5ZM19.412 3.5H21.4028V2.5H19.412V3.5ZM23.3935 3.5H25.3843V2.5H23.3935V3.5ZM27.375 3.5H29.3657V2.5H27.375V3.5ZM31.3565 3.5H33.3472V2.5H31.3565V3.5ZM35.338 3.5H37.3287V2.5H35.338V3.5ZM39.3195 3.5H41.3102V2.5H39.3195V3.5ZM43.3009 3.5H45.2917V2.5H43.3009V3.5ZM47.2824 3.5H49.2732V2.5H47.2824V3.5ZM51.2639 3.5H53.2546V2.5H51.2639V3.5ZM55.2454 3.5H57.2361V2.5H55.2454V3.5ZM59.2269 3.5H61.2176V2.5H59.2269V3.5ZM63.2084 3.5H65.1991V2.5H63.2084V3.5ZM67.1898 3.5H69.1806V2.5H67.1898V3.5ZM71.1713 3.5H73.162V2.5H71.1713V3.5ZM75.1528 3.5H77.1435V2.5H75.1528V3.5ZM79.1343 3.5H81.125V2.5H79.1343V3.5ZM83.1157 3.5H85.1065V2.5H83.1157V3.5ZM87.0972 3.5H89.088V2.5H87.0972V3.5ZM91.0787 3.5H93.0694V2.5H91.0787V3.5ZM95.0602 3.5H97.0509V2.5H95.0602V3.5ZM99.0416 3.5H101.032V2.5H99.0416V3.5ZM103.023 3.5H105.014V2.5H103.023V3.5ZM107.005 3.5H108.995V2.5H107.005V3.5ZM110.986 3.5H112.977V2.5H110.986V3.5ZM114.968 3.5H116.958V2.5H114.968V3.5ZM118.949 3.5H120.94V2.5H118.949V3.5ZM122.93 3.5H124.921V2.5H122.93V3.5ZM126.912 3.5H128.903V2.5H126.912V3.5ZM130.893 3.5H132.884V2.5H130.893V3.5ZM134.875 3.5H136.866V2.5H134.875V3.5ZM138.856 3.5H140.847V2.5H138.856V3.5ZM142.838 3.5H144.829V2.5H142.838V3.5ZM146.819 3.5H148.81V2.5H146.819V3.5ZM150.801 3.5H152.792V2.5H150.801V3.5ZM154.782 3.5H156.773V2.5H154.782V3.5ZM158.764 3.5H160.755V2.5H158.764V3.5ZM162.745 3.5H164.736V2.5H162.745V3.5ZM166.727 3.5H168.717V2.5H166.727V3.5ZM170.708 3.5H172.699V2.5H170.708V3.5ZM174.69 3.5H176.68V2.5H174.69V3.5ZM178.671 3.5H180.662V2.5H178.671V3.5ZM182.653 3.5H184.643V2.5H182.653V3.5ZM186.634 3.5H188.625V2.5H186.634V3.5ZM190.616 3.5H192.606V2.5H190.616V3.5ZM194.597 3.5H196.588V2.5H194.597V3.5ZM198.579 3.5H200.569V2.5H198.579V3.5ZM202.56 3.5H204.551V2.5H202.56V3.5ZM206.541 3.5H208.532V2.5H206.541V3.5ZM210.523 3.5H212.514V2.5H210.523V3.5Z" fill="#326597"/>
</svg>
