<svg width="47" height="40" viewBox="0 0 47 40" fill="none" xmlns="http://www.w3.org/2000/svg">
<g clip-path="url(#clip0_174_530)">
<path d="M31.458 20.521C31.458 20.021 31.3955 19.646 31.333 19.2397H23.958V21.896H28.333C28.1768 23.0522 27.0205 25.2397 23.958 25.2397C21.3018 25.2397 19.1455 23.0522 19.1455 20.3335C19.1455 15.9897 24.2705 13.9897 27.0205 16.646L29.1455 14.6147C27.8018 13.3647 26.0205 12.5835 23.958 12.5835C19.6455 12.5835 16.208 16.0522 16.208 20.3335C16.208 24.646 19.6455 28.0835 23.958 28.0835C28.4268 28.0835 31.458 24.9585 31.458 20.521Z" fill="#B6B9BC"/>
</g>
<rect x="0.5" y="0.5" width="45.5684" height="39" stroke="white" stroke-opacity="0.29"/>
<defs>
<clipPath id="clip0_174_530">
<rect width="46.5684" height="40" fill="white"/>
</clipPath>
</defs>
</svg>
