<svg width="53" height="52" viewBox="0 0 53 52" fill="none" xmlns="http://www.w3.org/2000/svg">
<rect x="0.5" width="52" height="52" rx="5" fill="#F3F3FD"/>
<path d="M30.7509 10.5627C31.3355 10.691 31.9232 10.8084 32.5046 10.9513C33.1862 11.1192 33.3425 11.5046 32.9979 12.1262C32.5518 12.931 32.1026 13.7344 31.6552 14.5391C31.5997 14.6393 31.5499 14.7427 31.4963 14.8467C32.7969 15.3279 33.3042 16.7479 32.4561 17.9553C35.5442 20.0472 37.1333 22.9796 37.4013 26.7123C37.9118 26.3772 38.4205 26.0447 38.9278 25.7091C39.3898 25.4034 39.8876 25.2349 40.4498 25.247C41.4869 25.2694 42.5099 25.9969 42.7173 27.0084C42.9106 27.951 42.7766 28.8425 41.9961 29.5643C39.7325 31.6568 37.4932 33.7762 35.2436 35.8841C34.8958 36.2102 34.5544 36.5439 34.1907 36.8515C33.6125 37.3404 32.936 37.581 32.1753 37.5803C29.2621 37.5791 26.3482 37.5797 23.4349 37.5803C23.3226 37.5803 23.2103 37.5803 23.0814 37.5803C23.1879 37.7629 23.3462 37.9135 23.3462 38.0641C23.3468 38.2766 23.2932 38.551 23.1548 38.6927C21.7923 40.0871 20.4113 41.4623 19.0271 42.835C18.7041 43.1554 18.3634 43.1337 18.0219 42.7948C17.1196 41.8988 16.2229 40.9977 15.3237 40.0992C13.7577 38.5338 12.1922 36.9677 10.6268 35.4016C10.1469 34.9217 10.1463 34.6467 10.6236 34.1693C11.8968 32.8955 13.1706 31.6217 14.4443 30.3486C14.981 29.8119 15.1802 29.8061 15.7469 30.3084C15.7698 30.3288 15.7998 30.3396 15.8458 30.3658C16.4093 29.8744 16.9811 29.3894 17.5369 28.8859C18.4374 28.0709 19.4546 27.4634 20.6187 27.1124C20.7776 27.0645 20.8344 27.0014 20.8401 26.8322C20.9754 23.0715 22.5715 20.1149 25.7106 18.0108C25.7279 17.9993 25.7393 17.9802 25.754 17.9649C24.9321 16.8442 25.313 15.379 26.7087 14.8429C26.2346 13.9916 25.7617 13.1428 25.2894 12.2941C25.2275 12.183 25.1618 12.0745 25.1056 11.9603C24.8982 11.5372 25.0571 11.1288 25.5109 11.0107C26.0827 10.862 26.6647 10.7554 27.2416 10.6284C27.3112 10.6131 27.3775 10.585 27.4458 10.5633C28.5473 10.5627 29.6494 10.5627 30.7509 10.5627ZM16.736 31.2733C16.7858 31.3384 16.8024 31.3658 16.8241 31.3882C18.4182 32.9842 20.0111 34.5822 21.6136 36.17C21.7029 36.2587 21.872 36.3053 22.0041 36.3053C25.3405 36.3123 28.6769 36.3091 32.0132 36.3129C32.6265 36.3136 33.1396 36.1094 33.5869 35.6843C34.7695 34.5605 35.9654 33.452 37.1556 32.3365C38.4696 31.1054 39.7817 29.8725 41.0969 28.6427C41.4173 28.3434 41.6145 27.9905 41.5405 27.5444C41.3905 26.6408 40.4601 26.2483 39.6725 26.762C37.767 28.0039 35.8716 29.263 33.9603 30.4954C33.652 30.6938 33.5289 30.8897 33.5353 31.2707C33.5569 32.6128 32.4216 33.7526 31.0866 33.7622C29.5933 33.7724 28.0999 33.7653 26.6066 33.7634C26.5134 33.7634 26.4145 33.7532 26.3277 33.7213C26.0348 33.6135 25.8734 33.3142 25.9289 33.0072C25.985 32.6996 26.2409 32.4979 26.599 32.4973C28.0183 32.4947 29.4376 32.5024 30.8568 32.4896C31.0936 32.4877 31.347 32.4437 31.5627 32.3492C32.0726 32.1265 32.361 31.5311 32.2544 31.0135C32.1243 30.3811 31.6514 29.9663 31.0068 29.9548C30.2129 29.9408 29.4165 29.9223 28.6239 29.9593C27.9276 29.9918 27.3584 29.7736 26.8064 29.3607C24.5026 27.6383 21.4189 27.593 19.1094 29.2739C18.2804 29.8763 17.5369 30.593 16.736 31.2733ZM28.465 21.7754C28.465 21.5105 28.4567 21.2668 28.4669 21.0242C28.4828 20.665 28.756 20.4135 29.1089 20.4186C29.4465 20.4231 29.7101 20.6707 29.7298 21.014C29.74 21.1934 29.7458 21.3752 29.7292 21.5539C29.7126 21.7326 29.793 21.8022 29.9423 21.8826C30.1912 22.016 30.4331 22.1761 30.6462 22.3619C30.9302 22.6095 30.943 22.9707 30.7171 23.2419C30.4893 23.515 30.1153 23.5444 29.8071 23.3172C29.6711 23.217 29.5384 23.1079 29.3891 23.0332C29.1382 22.9081 28.8906 22.9413 28.6826 23.1334C28.5001 23.3025 28.4165 23.5112 28.4962 23.7639C28.5869 24.0498 28.7917 24.1915 29.0789 24.2285C29.2148 24.2457 29.3552 24.24 29.488 24.27C30.2953 24.4519 30.897 25.0983 30.9953 25.8788C31.0987 26.7001 30.6947 27.4551 29.9481 27.8527C29.8658 27.8967 29.7534 27.9727 29.7432 28.0461C29.7152 28.2496 29.7337 28.4589 29.7337 28.6912C30.9404 28.6638 32.1396 28.533 32.9762 29.6153C33.8014 29.0748 34.5608 28.5081 35.3847 28.0601C35.975 27.7385 36.1256 27.3077 36.0943 26.7014C35.9469 23.8277 34.809 21.4333 32.5646 19.6305C30.4433 17.9266 28.0342 17.8704 25.888 19.4378C23.8516 20.9247 22.6914 22.9777 22.232 25.4378C22.1503 25.8769 22.133 26.3287 22.0833 26.8016C24.2862 26.6319 26.1873 27.2266 27.874 28.5381C28.0157 28.6485 28.234 28.6593 28.4477 28.7263C28.4548 28.5636 28.4497 28.4685 28.465 28.3766C28.5141 28.0799 28.4012 27.9248 28.1229 27.7755C27.8057 27.6051 27.5307 27.337 27.2786 27.0716C27.0776 26.8597 27.0948 26.584 27.2646 26.3383C27.4279 26.1028 27.6698 26.0154 27.9327 26.0907C28.084 26.1341 28.204 26.2783 28.3456 26.3645C28.576 26.5049 28.7981 26.688 29.0502 26.7557C29.3635 26.8399 29.6928 26.5259 29.7279 26.189C29.7649 25.8297 29.4714 25.5297 29.0553 25.501C28.167 25.4398 27.4924 24.9279 27.2639 24.1341C27.0272 23.3134 27.315 22.2757 28.465 21.7754ZM15.1444 31.5968C14.0634 32.6747 12.9804 33.7551 11.9312 34.8017C14.1246 36.997 16.3467 39.2198 18.5369 41.4119C19.6014 40.3474 20.6831 39.2657 21.7489 38.2C19.551 36.0028 17.3282 33.78 15.1444 31.5968ZM31.5754 12.0433C29.9124 11.6923 28.2837 11.6814 26.6239 12.049C27.0757 12.862 27.5115 13.6572 27.9647 14.4428C28.0042 14.5117 28.151 14.5468 28.2493 14.5487C28.8185 14.5589 29.3878 14.5583 29.957 14.5513C30.0489 14.55 30.1893 14.5264 30.2244 14.4651C30.6794 13.6687 31.1204 12.8646 31.5754 12.0433ZM29.1127 15.7038C28.4343 15.8378 27.7375 15.9527 27.0527 16.1193C26.6845 16.2086 26.5224 16.5915 26.6417 16.9259C26.7566 17.2463 27.0502 17.3867 27.4133 17.2839C28.5403 16.9661 29.6654 16.9655 30.793 17.2878C31.2774 17.4262 31.6846 17.0497 31.5729 16.5724C31.5116 16.3107 31.3329 16.1467 31.0751 16.0925C30.4363 15.9584 29.7949 15.8378 29.1127 15.7038Z" fill="#3340B0"/>
</svg>
