<svg width="45" height="40" viewBox="0 0 45 40" fill="none" xmlns="http://www.w3.org/2000/svg">
<path d="M22.8838 16.7397C20.8838 16.7397 19.29 18.3647 19.29 20.3335C19.29 22.3335 20.8838 23.9272 22.8838 23.9272C24.8525 23.9272 26.4775 22.3335 26.4775 20.3335C26.4775 18.3647 24.8525 16.7397 22.8838 16.7397ZM22.8838 22.6772C21.6025 22.6772 20.54 21.646 20.54 20.3335C20.54 19.0522 21.5713 18.021 22.8838 18.021C24.165 18.021 25.1963 19.0522 25.1963 20.3335C25.1963 21.646 24.165 22.6772 22.8838 22.6772ZM27.4463 16.6147C27.4463 16.146 27.0713 15.771 26.6025 15.771C26.1338 15.771 25.7588 16.146 25.7588 16.6147C25.7588 17.0835 26.1338 17.4585 26.6025 17.4585C27.0713 17.4585 27.4463 17.0835 27.4463 16.6147ZM29.8213 17.4585C29.7588 16.3335 29.5088 15.3335 28.6963 14.521C27.8838 13.7085 26.8838 13.4585 25.7588 13.396C24.6025 13.3335 21.1338 13.3335 19.9775 13.396C18.8525 13.4585 17.8838 13.7085 17.04 14.521C16.2275 15.3335 15.9775 16.3335 15.915 17.4585C15.8525 18.6147 15.8525 22.0835 15.915 23.2397C15.9775 24.3647 16.2275 25.3335 17.04 26.1772C17.8838 26.9897 18.8525 27.2397 19.9775 27.3022C21.1338 27.3647 24.6025 27.3647 25.7588 27.3022C26.8838 27.2397 27.8838 26.9897 28.6963 26.1772C29.5088 25.3335 29.7588 24.3647 29.8213 23.2397C29.8838 22.0835 29.8838 18.6147 29.8213 17.4585ZM28.3213 24.4585C28.1025 25.0835 27.6025 25.5522 27.0088 25.8022C26.0713 26.1772 23.8838 26.0835 22.8838 26.0835C21.8525 26.0835 19.665 26.1772 18.7588 25.8022C18.1338 25.5522 17.665 25.0835 17.415 24.4585C17.04 23.5522 17.1338 21.3647 17.1338 20.3335C17.1338 19.3335 17.04 17.146 17.415 16.2085C17.665 15.6147 18.1338 15.146 18.7588 14.896C19.665 14.521 21.8525 14.6147 22.8838 14.6147C23.8838 14.6147 26.0713 14.521 27.0088 14.896C27.6025 15.1147 28.0713 15.6147 28.3213 16.2085C28.6963 17.146 28.6025 19.3335 28.6025 20.3335C28.6025 21.3647 28.6963 23.5522 28.3213 24.4585Z" fill="#B6B9BC"/>
</svg>
