<svg width="97" height="91" viewBox="0 0 97 91" fill="none" xmlns="http://www.w3.org/2000/svg">
<path d="M22.204 13.1698C23.134 12.1855 23.9949 11.1208 25.0082 10.2295C30.4109 5.47882 38.5589 5.06683 44.3973 9.27018C49.1117 12.6649 51.273 17.3454 51.096 23.1397C51.0706 23.9583 50.7829 24.628 49.9864 24.9616C49.3216 25.2402 48.7024 25.1052 48.1512 24.649C47.6063 24.1986 47.5992 23.5721 47.5388 22.9351C47.4091 21.536 47.3994 20.0944 47.0259 18.757C45.0663 11.718 37.2173 8.02775 30.5023 10.9135C23.4476 13.9451 20.8443 22.4769 25.0013 28.9333C25.1653 29.1885 25.3341 29.4393 25.4765 29.7038C26.0179 30.6971 25.8059 31.7009 24.9493 32.2255C24.1305 32.7284 23.1269 32.4906 22.5003 31.618C20.4197 28.7177 19.3909 25.4826 19.4587 21.9042C19.4947 20.0231 19.8375 18.202 20.5511 16.4526C20.596 16.3452 20.5817 16.2123 20.5938 16.0916C21.1329 15.119 21.6685 14.1444 22.204 13.1698Z" fill="#3340B0"/>
<path d="M44.0927 28.8505C47.8579 25.6034 52.972 26.5927 55.1471 30.7973C56.8691 29.2859 58.8405 28.5909 61.129 28.997C63.4064 29.4017 64.9868 30.7229 66.0668 32.7833C66.2159 32.6837 66.3587 32.6041 66.4821 32.4997C70.3142 29.2681 76.1989 31.0653 77.4014 35.9242C79.062 42.6362 80.7605 49.3478 82.1365 56.1228C83.2561 61.639 81.8253 66.7278 78.413 71.2254C75.7367 74.7525 72.1862 76.9738 67.963 78.1744C65.3412 78.9201 62.7395 79.7406 60.0968 80.404C55.2374 81.6254 50.5771 80.9562 46.2019 78.5709C36.5728 73.3176 26.9656 68.0245 17.3594 62.7296C13.9714 60.8609 13.412 56.7846 16.1177 53.9506C18.5169 51.434 21.7914 50.7238 25.0498 51.927C29.3862 53.529 33.7449 55.0774 38.0945 56.6467C38.2081 56.603 38.3208 56.5611 38.4344 56.5174C38.276 56.2606 38.0503 56.0233 37.9705 55.7436C34.9518 45.3702 31.9488 34.9937 28.9413 24.6171C28.111 21.7505 28.6277 19.2349 30.8781 17.1695C34.1414 14.1749 39.8728 15.3926 41.4213 19.5359C42.4362 22.2469 43.1273 25.0795 43.9516 27.8626C44.0322 28.1451 44.0351 28.4533 44.0927 28.8505ZM34.0174 67.805C38.5477 70.2943 43.0862 72.7645 47.6026 75.2792C50.4041 76.8375 53.3735 77.6224 56.5827 77.3787C57.5327 77.3064 58.4978 77.181 59.4126 76.9196C62.664 75.9939 65.9911 75.2395 69.1147 73.9841C76.494 71.0224 80.303 63.2663 78.4472 55.4848C76.99 49.3727 75.5207 43.2611 74.0532 37.1505C73.9887 36.8816 73.9206 36.6107 73.8131 36.3558C73.3171 35.1682 72.3729 34.5432 71.1375 34.4352C69.8911 34.3258 68.8818 34.8278 68.1912 35.9129C67.672 36.7291 67.569 37.5946 67.8068 38.5225C68.0164 39.3428 67.9058 40.0934 67.1721 40.6218C66.1196 41.3784 64.8194 40.8691 64.3957 39.5113C63.8914 37.897 63.4797 36.2556 62.9547 34.6488C62.3965 32.9435 60.72 32.0718 59.0633 32.5459C57.3628 33.0313 56.3989 34.6738 56.8415 36.4477C57.2035 37.8919 57.6534 39.3137 58.0631 40.744C58.125 40.9619 58.1988 41.1794 58.2476 41.3996C58.4862 42.4977 58.0074 43.4162 57.0607 43.6885C56.1066 43.9614 55.2238 43.4433 54.8389 42.3756C54.763 42.1618 54.7078 41.9404 54.646 41.7224C53.7895 38.766 52.9565 35.8012 52.0674 32.8527C51.3618 30.5145 48.7759 29.6668 46.9551 31.1521C45.7495 32.1359 45.5494 33.4056 45.97 34.8419C46.8348 37.796 47.6903 40.7542 48.5429 43.7133C48.6325 44.0267 48.7171 44.3491 48.7397 44.6728C48.8261 45.9019 47.763 46.7636 46.5616 46.4737C45.6626 46.2556 45.3746 45.5479 45.152 44.777C42.9538 37.1894 40.7556 29.6017 38.5574 22.0141C38.4521 21.652 38.3584 21.2774 38.2005 20.9383C37.6668 19.7936 36.7531 19.143 35.4934 19.0664C34.2309 18.9906 33.2565 19.5236 32.5763 20.6027C31.9553 21.5869 32.0435 22.6023 32.3512 23.6605C35.7372 35.3183 39.112 46.9793 42.4943 58.6397C42.7236 59.4285 42.7983 60.1724 42.1323 60.8135C41.4722 61.4484 40.7269 61.3927 39.9497 61.1118C34.6269 59.1847 29.3032 57.2594 23.9855 55.3233C21.883 54.5572 20.0909 54.8743 18.7659 56.2901C17.9658 57.1453 17.7146 58.0874 18.2228 58.8148C18.4963 59.2057 18.9442 59.5107 19.3707 59.7474C24.2473 62.4435 29.1338 65.1215 34.0174 67.805Z" fill="#3340B0"/>
</svg>
