<svg width="68" height="68" viewBox="0 0 68 68" fill="none" xmlns="http://www.w3.org/2000/svg">
<g filter="url(#filter0_d_174_1594)">
<circle cx="34" cy="33" r="24" fill="#F3F3FD"/>
</g>
<path d="M35.6914 20.382C35.7054 20.3998 35.7156 20.423 35.7334 20.4356C35.8939 20.5467 35.9441 20.6999 35.8779 20.8773C35.8142 21.0484 35.6716 21.1073 35.4928 21.1068C34.462 21.1044 33.4313 21.1001 32.401 21.1073C30.9314 21.117 29.7634 22.0443 29.4367 23.4612C29.3812 23.7019 29.372 23.9532 29.3396 24.2136C29.5952 24.3103 29.8427 24.3789 30.0664 24.4939C30.3288 24.6287 30.5704 24.8041 30.8227 24.9593C30.8899 25.0003 30.9599 25.0463 31.0348 25.0651C32.3826 25.4043 33.2621 26.4134 33.4134 27.8061C33.4395 28.0453 33.4419 28.2874 33.4651 28.5271C33.4757 28.6368 33.4941 28.7503 33.5361 28.8509C33.7401 29.3385 33.7768 29.827 33.5956 30.3311C33.57 30.4021 33.5762 30.535 33.6226 30.5736C34.0141 30.9022 34.1798 31.343 34.2243 31.8243C34.291 32.5463 34.1904 33.2383 33.7096 33.8254C33.4748 34.112 33.1679 34.2526 32.8006 34.2386C32.6498 34.2328 32.6088 34.2845 32.5923 34.4242C32.5667 34.6378 32.5155 34.848 32.4706 35.0848C32.5706 35.0848 32.6576 35.0848 32.745 35.0848C33.9933 35.0848 35.241 35.0843 36.4892 35.0848C36.9363 35.0848 37.0228 35.1708 37.0933 35.6212C37.1827 36.1938 37.1271 36.7423 36.858 37.2632C37.4301 37.2096 37.954 36.6597 38.0593 36C38.082 35.8575 38.097 35.7125 38.1047 35.5685C38.1246 35.2036 38.241 35.0867 38.6136 35.0852C39.3143 35.0828 40.0145 35.0848 40.7152 35.0843C41.3676 35.0843 42.02 35.0935 42.6719 35.0819C44.3522 35.0524 45.6188 33.7824 45.6463 32.1017C45.656 31.4981 45.6482 30.894 45.6482 30.29C45.6482 28.2526 45.6531 26.2157 45.6463 24.1783C45.6424 23.0176 45.15 22.1168 44.1507 21.5128C43.664 21.2185 43.1242 21.1054 42.5584 21.1054C40.7708 21.1059 38.9833 21.0981 37.1958 21.1121C36.8652 21.1146 36.6598 20.8724 36.7623 20.6202C36.799 20.5303 36.885 20.4602 36.9488 20.3815C39.0108 20.3815 41.0724 20.3815 43.1344 20.3815C43.1692 20.3974 43.202 20.4216 43.2383 20.4283C44.7334 20.7019 45.7125 21.5746 46.2122 22.9978C46.2827 23.1988 46.3195 23.4119 46.3721 23.6192C46.3721 26.5994 46.3721 29.5791 46.3721 32.5593C46.3465 32.6671 46.32 32.7743 46.2948 32.8821C45.8773 34.6696 44.4266 35.8164 42.554 35.828C41.4106 35.8352 40.2673 35.8294 39.1234 35.8294C39.0355 35.8294 38.948 35.8294 38.8383 35.8294C38.8064 35.9778 38.7774 36.116 38.7465 36.2537C38.5155 37.2724 37.839 37.8335 36.8565 38.0538C36.5298 38.1273 36.1882 38.1408 35.8518 38.1626C35.5885 38.1795 35.4111 38.0446 35.3633 37.8286C35.315 37.6112 35.4309 37.414 35.6779 37.2942C36.2844 36.9999 36.511 36.52 36.351 35.8299C36.2781 35.8299 36.1993 35.8299 36.1205 35.8299C34.8641 35.8299 33.6081 35.8323 32.3517 35.8256C32.2091 35.8246 32.1362 35.8724 32.0699 35.9928C31.5263 36.9805 30.7318 37.6914 29.6846 38.1123C29.5401 38.1703 29.4991 38.2466 29.501 38.3965C29.5078 38.8497 29.501 38.8497 29.9185 38.9884C30.1321 39.0595 30.3549 39.1092 30.5574 39.204C31.4147 39.6046 32.269 40.0134 32.8726 40.788C33.0297 40.9896 33.0369 41.2032 32.877 41.3476C32.7122 41.497 32.5054 41.4815 32.3275 41.2742C32.01 40.9035 31.6597 40.5778 31.2209 40.3555C31.1933 40.3415 31.1629 40.3333 31.0952 40.3082C31.0952 40.7262 31.0774 41.1244 31.1006 41.5202C31.1199 41.8541 31.0252 42.1102 30.7217 42.2586C30.4269 42.4026 30.3274 42.6302 30.3786 42.9419C30.4375 43.3043 30.2892 43.5484 29.9765 43.7383C29.6769 43.92 29.4053 44.1476 29.0801 44.3844C30.4859 44.3844 31.8399 44.3844 33.2157 44.3844C33.2544 43.8393 33.2032 43.3014 33.0679 42.7698C33.05 42.6998 33.0253 42.6316 33.0094 42.5611C32.9611 42.346 33.0601 42.1561 33.2481 42.0957C33.4351 42.0358 33.6502 42.1329 33.6999 42.3494C33.8 42.7863 33.8879 43.228 33.9406 43.6725C33.9783 43.9905 33.9396 44.3162 33.9546 44.6381C33.9648 44.8546 33.8918 45.0121 33.7101 45.1237C29.8601 45.1237 26.0105 45.1237 22.1605 45.1237C21.9652 45.0082 21.9029 44.8362 21.9164 44.6139C21.9309 44.3815 21.9184 44.1471 21.9198 43.9137C21.9261 42.8201 22.2426 41.8294 22.8771 40.9345C23.4947 40.0637 24.41 39.622 25.3359 39.1943C25.5316 39.1039 25.7462 39.0561 25.952 38.9879C26.3671 38.8502 26.3589 38.8497 26.3696 38.4201C26.3734 38.2515 26.3217 38.1737 26.1618 38.1036C24.5361 37.3923 23.5571 36.1682 23.2734 34.4053C23.2555 34.2951 23.2309 34.2333 23.0965 34.2391C22.5819 34.2613 22.2112 34.0047 21.9865 33.5683C21.8309 33.2668 21.7459 32.9295 21.6289 32.6081C21.6289 32.3505 21.6289 32.0925 21.6289 31.8349C21.6458 31.7581 21.6642 31.6812 21.6796 31.6044C21.7512 31.2415 21.8831 30.9051 22.1672 30.6577C22.2837 30.5562 22.2528 30.4659 22.2455 30.3422C22.2233 29.9778 22.2209 29.6115 22.2296 29.2466C22.2349 29.0253 22.3026 28.804 22.2943 28.5841C22.2552 27.5654 22.5915 26.6912 23.2724 25.9436C23.5281 25.6629 23.7494 25.6146 23.9282 25.7856C24.1123 25.962 24.0737 26.1568 23.8055 26.4467C23.2275 27.0706 22.9661 27.8128 23.0385 28.6561C23.0603 28.906 23.0342 29.1244 22.9564 29.3583C22.7365 30.0189 23.0719 30.7384 23.7156 30.9965C23.7842 30.9071 23.8683 30.8196 23.9277 30.7172C24.4433 29.8338 25.2663 29.4453 26.2318 29.3269C26.7972 29.2573 27.3733 29.2785 27.9411 29.2239C28.5466 29.1655 29.112 28.9939 29.472 28.4401C29.5754 28.2811 29.6827 28.1323 29.9079 28.1569C30.1365 28.1816 30.208 28.3555 30.2631 28.5339C30.395 28.9615 30.6516 29.2969 30.9643 29.6125C31.1987 29.8488 31.3857 30.1353 31.5717 30.4142C31.6635 30.5519 31.6969 30.7263 31.7703 30.8781C31.8675 31.0791 31.9917 31.1052 32.1763 30.9767C32.2357 30.9351 32.2961 30.894 32.3493 30.8452C32.7972 30.4316 33.1548 29.9474 32.9113 29.3206C32.7436 28.8895 32.7339 28.4614 32.7045 28.026C32.6252 26.8555 31.9201 26.0186 30.786 25.7532C30.6463 25.7204 30.5192 25.6257 30.3911 25.5517C30.1147 25.3923 29.8562 25.1888 29.5629 25.0724C28.8259 24.779 28.0459 24.752 27.2834 24.91C26.5638 25.0588 25.8631 25.2995 25.1566 25.5073C24.9073 25.5807 24.7067 25.5203 24.6304 25.3236C24.5516 25.1212 24.6458 24.9327 24.887 24.8293C26.0008 24.3533 27.1558 24.0725 28.376 24.1073C28.4601 24.1097 28.5447 24.1078 28.6273 24.1078C28.6698 22.1245 30.0543 20.7758 31.5799 20.4598C31.679 20.4395 31.7761 20.4085 31.8742 20.3829C33.1461 20.382 34.419 20.382 35.6914 20.382ZM29.7088 29.2901C29.2401 29.6927 28.651 29.9077 28.0039 29.9565C27.4511 29.9981 26.8929 29.9836 26.3435 30.0479C25.5708 30.1378 24.9073 30.4345 24.5071 31.1676C24.411 31.3435 24.2215 31.4667 24.0853 31.6233C24.0253 31.6924 23.9543 31.7837 23.9528 31.8658C23.9417 32.4854 23.9437 33.1054 23.9475 33.7254C23.9635 36.1126 25.9946 37.9248 28.2905 37.702C29.8949 37.5464 31.3601 36.3658 31.7761 34.7977C32.0385 33.809 31.8757 32.7985 31.9274 31.804C31.4393 31.6866 31.2562 31.5213 31.0575 31.0907C30.9338 30.8235 30.8111 30.5456 30.6318 30.3161C30.3544 29.9599 30.0277 29.64 29.7088 29.2901ZM24.7753 40.314C23.1859 41.0137 22.4915 42.9588 22.6809 44.3824C24.035 44.3824 25.3876 44.3824 26.7885 44.3824C26.444 44.1316 26.1487 43.8963 25.8322 43.6933C25.5722 43.5266 25.4408 43.3169 25.493 43.0115C25.5563 42.6413 25.4234 42.3847 25.0875 42.2151C24.8372 42.0889 24.7608 41.8681 24.771 41.5912C24.7869 41.1737 24.7753 40.7557 24.7753 40.314ZM26.3396 39.6355C26.1043 39.7133 25.8945 39.7892 25.6814 39.851C25.5543 39.8878 25.5041 39.9501 25.507 40.0888C25.5161 40.515 25.5195 40.9417 25.506 41.3675C25.5002 41.5492 25.5447 41.6801 25.7099 41.7613C26.1318 41.9691 26.2966 42.3059 26.2198 42.7674C26.2091 42.8302 26.213 42.8965 26.2207 42.9602C26.226 43.0047 26.2352 43.0651 26.2657 43.0878C26.6078 43.3444 26.9548 43.5952 27.3506 43.8837C27.006 42.4378 26.6784 41.0591 26.3396 39.6355ZM28.521 43.8818C28.8419 43.6489 29.0985 43.4416 29.3763 43.2671C29.5899 43.1328 29.6996 42.9772 29.6542 42.7201C29.5788 42.2972 29.7339 41.985 30.12 41.7893C30.1626 41.7681 30.2104 41.742 30.2355 41.7043C30.2848 41.6299 30.353 41.5467 30.3549 41.4656C30.366 40.9992 30.3622 40.5324 30.3578 40.0661C30.3573 40.01 30.3356 39.9182 30.2998 39.9037C30.0519 39.8051 29.7972 39.7234 29.5319 39.6311C29.1927 41.0582 28.8646 42.4369 28.521 43.8818ZM27.9353 43.1729C28.1958 42.0764 28.4388 41.0514 28.6829 40.0231C28.1721 40.0231 27.6869 40.0231 27.1853 40.0231C27.4327 41.062 27.6753 42.0812 27.9353 43.1729ZM33.1664 31.1337C32.7325 31.3662 32.5793 31.6764 32.6407 32.108C32.6721 32.3283 32.646 32.5574 32.646 32.7821C32.646 33.0116 32.646 33.2416 32.646 33.4649C32.9872 33.5103 33.1341 33.4543 33.2732 33.1803C33.5511 32.6332 33.5999 32.0611 33.3815 31.4812C33.3332 31.3546 33.2365 31.2449 33.1664 31.1337ZM23.2246 33.4581C23.2246 32.9213 23.2246 32.3911 23.2246 31.861C23.2246 31.8045 23.2309 31.7474 23.2222 31.6924C23.2154 31.6479 23.2033 31.5914 23.1724 31.5657C23.0149 31.4348 22.8501 31.3125 22.6858 31.1854C22.6389 31.2367 22.6022 31.2695 22.5746 31.3082C22.2441 31.774 22.3117 32.8971 22.6916 33.3228C22.8293 33.4775 22.9926 33.5287 23.2246 33.4581ZM28.7684 38.4283C28.2059 38.4283 27.6569 38.4283 27.1022 38.4283C27.1022 38.7033 27.1022 38.9807 27.1022 39.2639C27.6656 39.2639 28.2156 39.2639 28.7684 39.2639C28.7684 38.9691 28.7684 38.6907 28.7684 38.4283Z" fill="#3340B0"/>
<path d="M38.3357 24.748C38.2444 24.3875 38.1545 24.056 38.0772 23.7216C37.9931 23.3572 37.9636 22.9938 38.1042 22.6304C38.2241 22.3212 38.4386 22.1206 38.7518 22.036C38.9286 21.9882 39.1152 21.9597 39.2983 21.9553C39.6023 21.9481 39.8115 22.094 39.9246 22.3869C40.1184 22.8885 40.3199 23.3872 40.5267 23.884C40.7548 24.432 41.1443 24.851 41.5918 25.2332C42.0122 25.5927 42.4191 25.9721 42.797 26.3761C43.1145 26.7153 43.2421 27.1435 43.232 27.619C43.2165 28.3352 43.2286 29.0518 43.2276 29.7685C43.2262 30.7934 42.5984 31.4637 41.5759 31.4748C39.9179 31.4922 38.2589 31.4888 36.6008 31.4758C35.7339 31.469 35.327 30.8814 35.5169 29.9623C34.8326 29.5462 34.7534 29.1393 34.9414 28.4632C34.2813 28.009 34.1919 27.3696 34.6103 26.7574C34.2262 26.1146 34.2846 25.5058 34.8177 25.168C35.0409 25.0264 35.34 24.9645 35.6102 24.9442C36.3872 24.8857 37.1672 24.8698 37.9457 24.8307C38.0641 24.8239 38.1796 24.7819 38.3357 24.748ZM39.1224 30.734C39.9275 30.734 40.7326 30.7355 41.5372 30.7335C42.1732 30.7321 42.5008 30.404 42.5027 29.7656C42.5052 29.0489 42.4994 28.3328 42.5052 27.6161C42.5076 27.33 42.4423 27.0633 42.2471 26.8598C41.9199 26.5182 41.5889 26.1751 41.2236 25.8764C40.6471 25.4057 40.1532 24.878 39.8608 24.1855C39.6733 23.7419 39.4921 23.2954 39.3215 22.845C39.2693 22.7078 39.1978 22.6807 39.0683 22.7078C38.8064 22.7628 38.6856 22.9296 38.7465 23.2543C38.8276 23.6878 38.9412 24.115 39.0446 24.5441C39.1596 25.0201 38.9818 25.3516 38.5106 25.4487C38.0718 25.5386 37.6253 25.6092 37.1788 25.6411C36.6337 25.6797 36.0857 25.6676 35.5387 25.6807C35.2415 25.6879 35.0936 25.8136 35.1008 26.0441C35.1076 26.2698 35.2458 26.3799 35.5333 26.3838C35.7585 26.3867 35.9842 26.3819 36.2094 26.3853C36.51 26.3896 36.6854 26.5225 36.6946 26.7463C36.7043 26.9734 36.5197 27.1217 36.208 27.1295C35.9746 27.1353 35.7411 27.1324 35.5077 27.1362C35.24 27.1406 35.1047 27.2546 35.0999 27.4735C35.095 27.6953 35.2444 27.8282 35.5164 27.8331C35.7982 27.8379 36.0799 27.8302 36.3616 27.836C36.6506 27.8423 36.8057 27.9732 36.8091 28.2008C36.813 28.4318 36.6637 28.5637 36.3752 28.5782C36.2065 28.5865 36.0359 28.5749 35.8692 28.5956C35.6662 28.6208 35.5913 28.7715 35.5904 28.9581C35.5894 29.149 35.6991 29.2572 35.8837 29.277C36.0113 29.291 36.1408 29.2828 36.2698 29.2848C36.4897 29.2876 36.6738 29.3597 36.7337 29.5902C36.7951 29.826 36.6598 29.9671 36.4617 30.0662C36.2978 30.1483 36.1384 30.2479 36.1877 30.4658C36.2408 30.6982 36.4235 30.7374 36.6356 30.7364C37.4644 30.7311 38.2937 30.734 39.1224 30.734Z" fill="#3340B0"/>
<path d="M28.0391 36.1357C27.1127 36.1135 26.3738 35.8255 25.8244 35.1325C25.7601 35.0513 25.6978 34.9634 25.6567 34.8687C25.5775 34.6855 25.6113 34.5202 25.7838 34.4033C25.9452 34.2936 26.1375 34.3361 26.2733 34.5024C26.385 34.6386 26.484 34.7894 26.6126 34.9078C27.25 35.4954 28.4262 35.5665 29.1206 35.0504C29.2835 34.9291 29.4164 34.758 29.5357 34.5903C29.7068 34.3506 29.8759 34.2772 30.076 34.397C30.2679 34.5115 30.3075 34.7208 30.1654 34.9653C29.7933 35.6051 29.2211 35.956 28.5035 36.0831C28.3305 36.114 28.1532 36.1232 28.0391 36.1357Z" fill="#3340B0"/>
<path d="M29.7622 31.8517C30.056 31.9082 30.2952 31.9406 30.5262 32.0025C30.7442 32.0609 30.8558 32.2528 30.7993 32.4451C30.7379 32.6529 30.5837 32.7568 30.375 32.7022C29.9483 32.5911 29.537 32.6171 29.1224 32.7573C28.9194 32.8259 28.7793 32.7157 28.7121 32.5253C28.6411 32.3243 28.7281 32.1556 28.9078 32.0894C29.1978 31.9831 29.5042 31.9213 29.7622 31.8517Z" fill="#3340B0"/>
<path d="M26.1038 31.8566C26.3522 31.917 26.6286 31.9667 26.893 32.0532C27.1322 32.1315 27.2254 32.3239 27.1607 32.5196C27.0892 32.7356 26.9026 32.8284 26.6567 32.739C26.2966 32.6085 25.9415 32.5959 25.5713 32.6936C25.3147 32.7617 25.1199 32.652 25.0692 32.45C25.0146 32.233 25.1422 32.0475 25.4084 31.9851C25.6259 31.9344 25.8482 31.903 26.1038 31.8566Z" fill="#3340B0"/>
<defs>
<filter id="filter0_d_174_1594" x="0" y="0" width="68" height="68" filterUnits="userSpaceOnUse" color-interpolation-filters="sRGB">
<feFlood flood-opacity="0" result="BackgroundImageFix"/>
<feColorMatrix in="SourceAlpha" type="matrix" values="0 0 0 0 0 0 0 0 0 0 0 0 0 0 0 0 0 0 127 0" result="hardAlpha"/>
<feOffset dy="1"/>
<feGaussianBlur stdDeviation="5"/>
<feComposite in2="hardAlpha" operator="out"/>
<feColorMatrix type="matrix" values="0 0 0 0 0 0 0 0 0 0 0 0 0 0 0 0 0 0 0.1 0"/>
<feBlend mode="normal" in2="BackgroundImageFix" result="effect1_dropShadow_174_1594"/>
<feBlend mode="normal" in="SourceGraphic" in2="effect1_dropShadow_174_1594" result="shape"/>
</filter>
</defs>
</svg>
