<svg width="46" height="40" viewBox="0 0 46 40" fill="none" xmlns="http://www.w3.org/2000/svg">
<path d="M29.1055 13.3335H17.0742C16.543 13.3335 16.1055 13.8022 16.1055 14.3647V26.3335C16.1055 26.896 16.543 27.3335 17.0742 27.3335H29.1055C29.6367 27.3335 30.1055 26.896 30.1055 26.3335V14.3647C30.1055 13.8022 29.6367 13.3335 29.1055 13.3335ZM20.3242 25.3335H18.2617V18.6772H20.3242V25.3335ZM19.293 17.7397C18.6055 17.7397 18.0742 17.2085 18.0742 16.5522C18.0742 15.896 18.6055 15.3335 19.293 15.3335C19.9492 15.3335 20.4805 15.896 20.4805 16.5522C20.4805 17.2085 19.9492 17.7397 19.293 17.7397ZM28.1055 25.3335H26.0117V22.0835C26.0117 21.3335 26.0117 20.3335 24.9492 20.3335C23.8555 20.3335 23.6992 21.1772 23.6992 22.0522V25.3335H21.6367V18.6772H23.6055V19.5835H23.6367C23.918 19.0522 24.6055 18.4897 25.6055 18.4897C27.6992 18.4897 28.1055 19.896 28.1055 21.6772V25.3335Z" fill="#B6B9BC"/>
</svg>
