<svg width="50" height="106" viewBox="0 0 50 106" fill="none" xmlns="http://www.w3.org/2000/svg">
<rect x="21" y="31" width="8" height="54" fill="#C9C9EB"/>
<circle cx="25" cy="91" r="15" fill="#C9C9EB"/>
<circle cx="25" cy="25" r="25" fill="#C9C9EB"/>
<g filter="url(#filter0_d_143_4219)">
<circle cx="25" cy="25" r="18" fill="white"/>
</g>
<path d="M20.3253 31.3182C19.2685 31.3144 18.3556 31.0701 17.5866 30.5852C16.8177 30.1004 16.2249 29.4015 15.8082 28.4886C15.3916 27.5758 15.1851 26.4811 15.1889 25.2045C15.1927 23.9242 15.401 22.8371 15.8139 21.9432C16.2306 21.0492 16.8215 20.3693 17.5866 19.9034C18.3556 19.4375 19.2685 19.2045 20.3253 19.2045C21.3821 19.2045 22.295 19.4394 23.0639 19.9091C23.8329 20.375 24.4257 21.0549 24.8423 21.9489C25.259 22.8428 25.4654 23.928 25.4616 25.2045C25.4616 26.4886 25.2533 27.5871 24.8366 28.5C24.42 29.4129 23.8272 30.1117 23.0582 30.5966C22.2931 31.0777 21.3821 31.3182 20.3253 31.3182ZM20.3253 28.75C20.8707 28.75 21.3177 28.4659 21.6662 27.8977C22.0185 27.3258 22.1927 26.428 22.1889 25.2045C22.1889 24.4053 22.1094 23.7519 21.9503 23.2443C21.7912 22.7367 21.5715 22.3617 21.2912 22.1193C21.0109 21.8731 20.6889 21.75 20.3253 21.75C19.7798 21.75 19.3348 22.0265 18.9901 22.5795C18.6454 23.1326 18.4692 24.0076 18.4616 25.2045C18.4579 26.0189 18.5355 26.6894 18.6946 27.2159C18.8537 27.7386 19.0734 28.125 19.3537 28.375C19.6378 28.625 19.9616 28.75 20.3253 28.75ZM26.9446 31V28.7273L31.2855 25.1364C31.5734 24.8977 31.8196 24.6742 32.0241 24.4659C32.2325 24.2538 32.3916 24.036 32.5014 23.8125C32.6151 23.589 32.6719 23.3409 32.6719 23.0682C32.6719 22.7689 32.6075 22.5133 32.4787 22.3011C32.3537 22.089 32.1795 21.9261 31.956 21.8125C31.7325 21.6951 31.4749 21.6364 31.1832 21.6364C30.8916 21.6364 30.634 21.6951 30.4105 21.8125C30.1908 21.9299 30.0204 22.1023 29.8991 22.3295C29.7779 22.5568 29.7173 22.8333 29.7173 23.1591H26.7173C26.7173 22.3409 26.901 21.6364 27.2685 21.0455C27.6359 20.4545 28.1548 20 28.8253 19.6818C29.4957 19.3636 30.2817 19.2045 31.1832 19.2045C32.1151 19.2045 32.9219 19.3542 33.6037 19.6534C34.2893 19.9489 34.8177 20.3655 35.1889 20.9034C35.5639 21.4413 35.7514 22.072 35.7514 22.7955C35.7514 23.2424 35.6586 23.6875 35.473 24.1307C35.2874 24.5701 34.9541 25.0568 34.473 25.5909C33.992 26.125 33.3082 26.7614 32.4219 27.5L31.331 28.4091V28.4773H35.8764V31H26.9446Z" fill="#326597"/>
<defs>
<filter id="filter0_d_143_4219" x="5" y="7" width="44" height="44" filterUnits="userSpaceOnUse" color-interpolation-filters="sRGB">
<feFlood flood-opacity="0" result="BackgroundImageFix"/>
<feColorMatrix in="SourceAlpha" type="matrix" values="0 0 0 0 0 0 0 0 0 0 0 0 0 0 0 0 0 0 127 0" result="hardAlpha"/>
<feOffset dx="2" dy="4"/>
<feGaussianBlur stdDeviation="2"/>
<feComposite in2="hardAlpha" operator="out"/>
<feColorMatrix type="matrix" values="0 0 0 0 0 0 0 0 0 0 0 0 0 0 0 0 0 0 0.25 0"/>
<feBlend mode="normal" in2="BackgroundImageFix" result="effect1_dropShadow_143_4219"/>
<feBlend mode="normal" in="SourceGraphic" in2="effect1_dropShadow_143_4219" result="shape"/>
</filter>
</defs>
</svg>
