<svg width="50" height="106" viewBox="0 0 50 106" fill="none" xmlns="http://www.w3.org/2000/svg">
<rect x="21" y="31" width="8" height="54" fill="#C9C9EB"/>
<circle cx="25" cy="91" r="15" fill="#C9C9EB"/>
<circle cx="25" cy="25" r="25" fill="#C9C9EB"/>
<g filter="url(#filter0_d_143_4241)">
<circle cx="25" cy="25" r="18" fill="white"/>
</g>
<path d="M20.0987 31.3182C19.0419 31.3144 18.129 31.0701 17.3601 30.5852C16.5911 30.1004 15.9983 29.4015 15.5817 28.4886C15.165 27.5758 14.9586 26.4811 14.9624 25.2045C14.9661 23.9242 15.1745 22.8371 15.5874 21.9432C16.004 21.0492 16.5949 20.3693 17.3601 19.9034C18.129 19.4375 19.0419 19.2045 20.0987 19.2045C21.1555 19.2045 22.0684 19.4394 22.8374 19.9091C23.6063 20.375 24.1991 21.0549 24.6158 21.9489C25.0324 22.8428 25.2389 23.928 25.2351 25.2045C25.2351 26.4886 25.0268 27.5871 24.6101 28.5C24.1934 29.4129 23.6006 30.1117 22.8317 30.5966C22.0665 31.0777 21.1555 31.3182 20.0987 31.3182ZM20.0987 28.75C20.6442 28.75 21.0911 28.4659 21.4396 27.8977C21.7919 27.3258 21.9661 26.428 21.9624 25.2045C21.9624 24.4053 21.8828 23.7519 21.7237 23.2443C21.5646 22.7367 21.3449 22.3617 21.0646 22.1193C20.7843 21.8731 20.4624 21.75 20.0987 21.75C19.5533 21.75 19.1082 22.0265 18.7635 22.5795C18.4188 23.1326 18.2427 24.0076 18.2351 25.2045C18.2313 26.0189 18.3089 26.6894 18.468 27.2159C18.6271 27.7386 18.8468 28.125 19.1271 28.375C19.4112 28.625 19.7351 28.75 20.0987 28.75ZM31.2635 31.1591C30.3468 31.1591 29.5324 31.0019 28.8203 30.6875C28.112 30.3693 27.5552 29.9318 27.1499 29.375C26.7446 28.8182 26.54 28.178 26.5362 27.4545H29.718C29.7218 27.678 29.79 27.8788 29.9226 28.0568C30.0589 28.2311 30.2446 28.3674 30.4794 28.4659C30.7143 28.5644 30.9832 28.6136 31.2862 28.6136C31.5779 28.6136 31.8355 28.5625 32.0589 28.4602C32.2824 28.3542 32.4567 28.2083 32.5817 28.0227C32.7067 27.8371 32.7673 27.625 32.7635 27.3864C32.7673 27.1515 32.6953 26.9432 32.5476 26.7614C32.4036 26.5795 32.201 26.4375 31.9396 26.3352C31.6783 26.233 31.3771 26.1818 31.0362 26.1818H29.8544V24H31.0362C31.3506 24 31.6271 23.9489 31.8658 23.8466C32.1082 23.7443 32.2957 23.6023 32.4283 23.4205C32.5646 23.2386 32.6309 23.0303 32.6271 22.7955C32.6309 22.5682 32.576 22.3674 32.4624 22.1932C32.3487 22.0189 32.1896 21.8826 31.9851 21.7841C31.7843 21.6856 31.5514 21.6364 31.2862 21.6364C30.9983 21.6364 30.7408 21.6875 30.5135 21.7898C30.29 21.892 30.1139 22.0341 29.9851 22.2159C29.8563 22.3977 29.79 22.6061 29.7862 22.8409H26.7635C26.7673 22.1288 26.9624 21.5 27.3487 20.9545C27.7389 20.4091 28.273 19.9811 28.951 19.6705C29.629 19.3598 30.4074 19.2045 31.2862 19.2045C32.1461 19.2045 32.9055 19.3504 33.5646 19.642C34.2275 19.9337 34.7446 20.3352 35.1158 20.8466C35.4908 21.3542 35.6764 21.9356 35.6726 22.5909C35.6802 23.2424 35.4567 23.7765 35.0021 24.1932C34.5514 24.6098 33.9794 24.8561 33.2862 24.9318V25.0227C34.2256 25.125 34.9321 25.4129 35.4055 25.8864C35.879 26.3561 36.112 26.947 36.1044 27.6591C36.1082 28.3409 35.9036 28.9451 35.4908 29.4716C35.0817 29.9981 34.5116 30.411 33.7805 30.7102C33.0533 31.0095 32.2143 31.1591 31.2635 31.1591Z" fill="#326597"/>
<defs>
<filter id="filter0_d_143_4241" x="5" y="7" width="44" height="44" filterUnits="userSpaceOnUse" color-interpolation-filters="sRGB">
<feFlood flood-opacity="0" result="BackgroundImageFix"/>
<feColorMatrix in="SourceAlpha" type="matrix" values="0 0 0 0 0 0 0 0 0 0 0 0 0 0 0 0 0 0 127 0" result="hardAlpha"/>
<feOffset dx="2" dy="4"/>
<feGaussianBlur stdDeviation="2"/>
<feComposite in2="hardAlpha" operator="out"/>
<feColorMatrix type="matrix" values="0 0 0 0 0 0 0 0 0 0 0 0 0 0 0 0 0 0 0.25 0"/>
<feBlend mode="normal" in2="BackgroundImageFix" result="effect1_dropShadow_143_4241"/>
<feBlend mode="normal" in="SourceGraphic" in2="effect1_dropShadow_143_4241" result="shape"/>
</filter>
</defs>
</svg>
