<svg width="50" height="106" viewBox="0 0 50 106" fill="none" xmlns="http://www.w3.org/2000/svg">
<rect x="21" y="31" width="8" height="54" fill="#C9C9EB"/>
<circle cx="25" cy="91" r="15" fill="#C9C9EB"/>
<circle cx="25" cy="25" r="25" fill="#C9C9EB"/>
<g filter="url(#filter0_d_143_4200)">
<circle cx="25" cy="25" r="18" fill="white"/>
</g>
<path d="M20.9503 31.3182C19.8935 31.3144 18.9806 31.0701 18.2116 30.5852C17.4427 30.1004 16.8499 29.4015 16.4332 28.4886C16.0166 27.5758 15.8101 26.4811 15.8139 25.2045C15.8177 23.9242 16.026 22.8371 16.4389 21.9432C16.8556 21.0492 17.4465 20.3693 18.2116 19.9034C18.9806 19.4375 19.8935 19.2045 20.9503 19.2045C22.0071 19.2045 22.92 19.4394 23.6889 19.9091C24.4579 20.375 25.0507 21.0549 25.4673 21.9489C25.884 22.8428 26.0904 23.928 26.0866 25.2045C26.0866 26.4886 25.8783 27.5871 25.4616 28.5C25.045 29.4129 24.4522 30.1117 23.6832 30.5966C22.9181 31.0777 22.0071 31.3182 20.9503 31.3182ZM20.9503 28.75C21.4957 28.75 21.9427 28.4659 22.2912 27.8977C22.6435 27.3258 22.8177 26.428 22.8139 25.2045C22.8139 24.4053 22.7344 23.7519 22.5753 23.2443C22.4162 22.7367 22.1965 22.3617 21.9162 22.1193C21.6359 21.8731 21.3139 21.75 20.9503 21.75C20.4048 21.75 19.9598 22.0265 19.6151 22.5795C19.2704 23.1326 19.0942 24.0076 19.0866 25.2045C19.0829 26.0189 19.1605 26.6894 19.3196 27.2159C19.4787 27.7386 19.6984 28.125 19.9787 28.375C20.2628 28.625 20.5866 28.75 20.9503 28.75ZM33.2741 19.3636V31H30.1151V22.2727H30.0469L27.5014 23.7955V21.1136L30.3651 19.3636H33.2741Z" fill="#326597"/>
<defs>
<filter id="filter0_d_143_4200" x="5" y="7" width="44" height="44" filterUnits="userSpaceOnUse" color-interpolation-filters="sRGB">
<feFlood flood-opacity="0" result="BackgroundImageFix"/>
<feColorMatrix in="SourceAlpha" type="matrix" values="0 0 0 0 0 0 0 0 0 0 0 0 0 0 0 0 0 0 127 0" result="hardAlpha"/>
<feOffset dx="2" dy="4"/>
<feGaussianBlur stdDeviation="2"/>
<feComposite in2="hardAlpha" operator="out"/>
<feColorMatrix type="matrix" values="0 0 0 0 0 0 0 0 0 0 0 0 0 0 0 0 0 0 0.25 0"/>
<feBlend mode="normal" in2="BackgroundImageFix" result="effect1_dropShadow_143_4200"/>
<feBlend mode="normal" in="SourceGraphic" in2="effect1_dropShadow_143_4200" result="shape"/>
</filter>
</defs>
</svg>
