<svg width="53" height="52" viewBox="0 0 53 52" fill="none" xmlns="http://www.w3.org/2000/svg">
<rect x="0.5" width="52" height="52" rx="5" fill="#F3F3FD"/>
<path d="M14.5236 42.5427C14.5236 41.92 14.5236 41.2981 14.5236 40.6355C15.17 40.6355 15.7877 40.6355 16.4214 40.6355C16.4214 32.3332 16.4214 24.0708 16.4214 15.7659C15.797 15.7659 15.1785 15.7659 14.5456 15.7659C14.5456 15.1127 14.5456 14.5027 14.5456 13.8545C15.8004 13.8545 17.0535 13.8545 18.3447 13.8545C18.3447 12.5649 18.3447 11.3127 18.3447 10.0427C20.9179 10.0427 23.452 10.0427 26.0099 10.0427C26.0099 11.2983 26.0099 12.5437 26.0099 13.829C30.4817 13.829 34.9298 13.829 39.3991 13.829C39.3991 14.4874 39.3991 15.105 39.3991 15.7574C38.7789 15.7574 38.1698 15.7574 37.536 15.7574C37.536 24.0597 37.536 32.3273 37.536 40.6236C38.1545 40.6236 38.7645 40.6236 39.4263 40.6236C39.4263 41.282 39.4263 41.9123 39.4263 42.5427C31.1256 42.5427 22.825 42.5427 14.5236 42.5427ZM18.399 21.5273C18.399 25.9864 18.399 30.4159 18.399 34.8538C24.1282 34.8538 29.8369 34.8538 35.5517 34.8538C35.5517 30.4006 35.5517 25.9712 35.5517 21.5273C29.8293 21.5273 24.1282 21.5273 18.399 21.5273ZM35.5542 15.7854C29.8302 15.7854 24.1205 15.7854 18.4075 15.7854C18.4075 17.0572 18.4075 18.3085 18.4075 19.5565C24.1366 19.5565 29.8369 19.5565 35.5542 19.5565C35.5542 18.2924 35.5542 17.0487 35.5542 15.7854ZM18.399 40.6092C24.1265 40.6092 29.8327 40.6092 35.5457 40.6092C35.5457 39.3383 35.5457 38.0878 35.5457 36.8407C29.8123 36.8407 24.1052 36.8407 18.399 36.8407C18.399 38.109 18.399 39.3528 18.399 40.6092ZM20.3172 11.9346C20.3172 12.5896 20.3172 13.2046 20.3172 13.8214C21.5855 13.8214 22.8284 13.8214 24.0806 13.8214C24.0806 13.1877 24.0806 12.5717 24.0806 11.949C23.9822 11.9431 23.9093 11.9354 23.8363 11.9354C22.674 11.9346 21.5117 11.9346 20.3172 11.9346Z" fill="#3340B0"/>
<path d="M26.9966 23.342C28.3498 24.7105 29.6495 26.0891 30.4911 27.8376C31.4795 29.8916 29.9957 32.6921 27.4106 32.9449C25.31 33.1511 23.6158 31.8649 23.2018 29.8025C23.0457 29.0245 23.2196 28.2949 23.5691 27.5958C24.18 26.3716 25.8742 24.2566 26.9966 23.342ZM27.0339 26.0305C26.2636 26.9383 25.5866 27.7468 25.1768 28.7352C25.092 28.9388 25.0597 29.1942 25.092 29.4122C25.2455 30.4396 26.0854 31.1073 27.1256 31.0488C28.3914 30.9775 29.3305 29.5089 28.6552 28.4595C28.1436 27.6628 27.6049 26.8832 27.0339 26.0305Z" fill="#3340B0"/>
</svg>
