<svg width="68" height="68" viewBox="0 0 68 68" fill="none" xmlns="http://www.w3.org/2000/svg">
<g filter="url(#filter0_d_163_375)">
<circle cx="34" cy="33" r="24" fill="#F3F3FD"/>
</g>
<path d="M21.2238 30.8883C21.3374 30.6577 21.4241 30.4084 21.57 30.2C21.7851 29.8928 22.1064 29.7193 22.4802 29.677C22.6919 29.6535 22.7847 29.56 22.8398 29.353C23.1316 28.2626 23.5887 27.2422 24.1782 26.2803C24.3449 26.008 24.5398 25.9502 24.7563 26.1022C24.9472 26.2366 24.9586 26.4201 24.8349 26.6762C24.4706 27.4278 24.1083 28.18 23.7668 28.9423C23.6418 29.2212 23.5799 29.5284 23.5026 29.7805C23.6996 29.9943 23.8622 30.1838 24.0404 30.3573C24.0874 30.403 24.1883 30.4258 24.2548 30.4124C25.7041 30.1186 27.1675 29.9687 28.645 29.9324C28.7311 29.9304 28.8454 29.8618 28.8965 29.7892C29.2769 29.2474 29.7811 28.9846 30.4466 29.0754C30.5951 29.0955 30.6899 29.0666 30.784 28.9389C31.4825 27.9904 32.2804 27.1313 33.1657 26.3542C33.2753 26.2581 33.2874 26.1815 33.2537 26.037C33.1859 25.7418 33.167 25.436 33.1186 25.0602C31.9947 24.386 30.7168 23.8388 29.3468 23.4382C29.123 23.8368 28.7889 24.1158 28.3372 24.228C27.8922 24.3383 27.4741 24.2576 27.062 23.9847C26.7097 24.3484 26.3615 24.7107 26.01 25.069C25.7969 25.2854 25.4635 25.2484 25.3767 24.9749C25.3378 24.8518 25.3821 24.6482 25.4675 24.55C25.77 24.2032 26.1007 23.8805 26.4335 23.5612C26.5444 23.455 26.576 23.377 26.5249 23.2197C26.3044 22.5428 26.5484 21.8672 27.1285 21.4793C27.7161 21.0868 28.4037 21.1224 28.963 21.5889C29.0699 21.6783 29.1465 21.6924 29.2716 21.6299C31.0052 20.7695 32.8464 20.3641 34.7776 20.3789C36.5772 20.3924 38.2974 20.7728 39.9241 21.5513C40.0512 21.6118 40.1406 21.6481 40.2797 21.5378C40.8034 21.1244 41.4601 21.1056 42.0134 21.4592C42.5767 21.8195 42.8456 22.4534 42.6876 23.1115C42.6493 23.2708 42.6755 23.3649 42.7985 23.4523C42.8462 23.4859 42.8933 23.5242 42.9296 23.5693C43.2207 23.9289 43.5393 24.0539 44.0374 23.945C44.6034 23.8213 45.078 24.1393 45.3946 24.6233C45.73 25.1355 45.7663 25.6861 45.4403 26.2097C45.3092 26.4208 45.3395 26.5525 45.4464 26.7441C46.3075 28.2868 46.8083 29.9412 46.9373 31.703C47.2317 35.7262 45.892 39.1175 42.9733 41.8918C42.8704 41.9892 42.8603 42.0639 42.9 42.1943C43.105 42.8705 42.8704 43.5326 42.3031 43.9178C41.7357 44.303 41.0541 44.2849 40.5056 43.8526C40.3839 43.7565 40.2979 43.7605 40.1708 43.8244C38.0668 44.8858 35.8344 45.2784 33.4964 45.0646C31.9913 44.9268 30.5535 44.5262 29.2043 43.8345C29.0618 43.7612 28.965 43.7578 28.8245 43.856C28.2948 44.227 27.6394 44.2136 27.107 43.8446C26.5787 43.4789 26.3333 42.8631 26.4926 42.2386C26.537 42.0652 26.4725 41.9805 26.3609 41.8763C24.2367 39.8879 22.9554 37.4491 22.5004 34.5808C22.4103 34.0121 22.4103 33.4293 22.3599 32.8539C22.3531 32.7772 22.3101 32.6596 22.255 32.6394C21.7051 32.4378 21.3912 32.0324 21.2231 31.492C21.2238 31.291 21.2238 31.0893 21.2238 30.8883ZM29.7683 32.0674C29.7482 32.0983 29.7327 32.1171 29.7219 32.1386C28.3869 34.9021 27.8693 37.8161 28.1194 40.8714C28.1308 41.0132 28.1873 41.0764 28.3251 41.1039C28.6578 41.1698 28.9348 41.3446 29.1398 41.6101C29.242 41.7425 29.3247 41.7513 29.4712 41.6962C31.1369 41.065 32.716 40.2643 34.1948 39.2708C36.1362 37.9674 37.8382 36.4011 39.305 34.5781C39.385 34.4786 39.3756 34.4114 39.338 34.2924C39.2472 34.0027 39.1672 33.7022 39.1457 33.401C39.1323 33.2128 39.1087 33.1107 38.9245 33.0212C37.0874 32.1252 35.1655 31.4859 33.1603 31.0987C32.6864 31.0073 32.2071 30.9455 31.7372 30.8715C31.3568 31.8644 30.7686 32.2186 29.7683 32.0674ZM41.4877 34.8349C41.6114 35.4755 41.7411 36.1134 41.8554 36.754C41.9098 37.0586 41.7821 37.2414 41.5287 37.2683C41.2995 37.2925 41.1556 37.1392 41.1005 36.8441C40.9909 36.2539 40.8713 35.6664 40.755 35.0755C40.6367 35.0668 40.5533 35.0654 40.472 35.0527C40.3812 35.0386 40.2811 35.0345 40.2038 34.9915C40.0377 34.8994 39.9564 34.9767 39.8549 35.1017C37.2185 38.3526 33.9575 40.7557 30.0553 42.2743C29.7051 42.4107 29.412 42.527 29.453 42.9713C29.4564 43.009 29.4376 43.0487 29.4282 43.093C29.4914 43.1253 29.5418 43.1528 29.5942 43.177C32.9681 44.7641 36.3446 44.7628 39.7265 43.2006C39.906 43.1179 39.9645 43.0265 39.9416 42.8221C39.8576 42.0686 40.2992 41.4152 41.0225 41.1826C41.083 41.1631 41.1428 41.1416 41.2289 41.112C41.2531 40.4714 41.28 39.8355 41.2995 39.1996C41.3089 38.8903 41.4205 38.7431 41.6699 38.7391C41.9293 38.7344 42.0591 38.885 42.0523 39.2096C42.0382 39.8704 42.0154 40.5312 41.9952 41.2122C42.1048 41.2706 42.2352 41.3406 42.3683 41.4118C43.544 40.3531 44.4589 39.1169 45.1338 37.6992C45.207 37.5452 45.1203 37.4868 45.0397 37.4054C44.0851 36.4468 43.0506 35.5844 41.9455 34.804C41.77 34.6789 41.6349 34.613 41.4877 34.8349ZM26.9444 41.4024C27.2892 41.2901 27.3961 41.1033 27.3645 40.7591C27.2038 39.0382 27.3268 37.3322 27.6992 35.6442C27.991 34.3247 28.4293 33.0569 29.0154 31.8388C29.049 31.7689 29.088 31.6667 29.0612 31.6089C28.9233 31.3111 28.7647 31.0234 28.5778 30.6638C27.181 30.8251 25.731 30.9925 24.2784 31.1599C24.2414 31.9692 23.834 32.4364 23.1006 32.6798C23.2956 36.0839 24.5197 39.0127 26.9444 41.4024ZM39.8475 23.4879C38.6684 23.8368 37.5452 24.3228 36.4669 24.9211C36.2599 25.036 36.108 25.1395 36.2007 25.4145C36.233 25.5093 36.2243 25.6437 36.1812 25.7345C35.9903 26.1364 36.1443 26.4053 36.4857 26.6157C36.4925 26.6198 36.4978 26.6272 36.5039 26.6332C38.0923 28.1201 39.3642 29.8403 40.3221 31.7945C40.3624 31.8765 40.4505 31.9733 40.5318 31.9901C40.7073 32.0264 40.8934 32.0156 41.0803 32.0244C42.0382 30.4258 42.7938 28.7359 43.3289 26.9491C43.3484 26.8833 43.3 26.7603 43.2422 26.7145C42.8032 26.3663 42.5666 25.9213 42.617 25.362C42.6419 25.0878 42.7488 24.8209 42.8267 24.5184C42.6385 24.3423 42.4194 24.1379 42.2036 23.9356C41.405 24.5104 40.4303 24.3611 39.8475 23.4879ZM42.1323 33.9227C43.2959 34.8806 44.4159 35.8029 45.5472 36.7339C46.6906 33.3453 46.4076 30.0682 44.7022 26.9444C44.2068 26.8712 44.0233 27.1172 43.9601 27.5111C43.946 27.6005 43.9036 27.6859 43.8747 27.7726C43.3544 29.3321 42.6741 30.8184 41.8473 32.2395C41.8023 32.3168 41.7693 32.466 41.8103 32.5178C42.1612 32.9581 42.2365 33.4494 42.1323 33.9227ZM31.2969 29.4585C31.4146 29.644 31.5221 29.7691 31.5779 29.9136C31.6404 30.0763 31.75 30.1085 31.8992 30.1354C32.8444 30.3082 33.7962 30.4541 34.7299 30.6759C36.3379 31.0577 37.8732 31.6513 39.3548 32.3833C39.4274 32.4189 39.5443 32.4189 39.6149 32.3833C39.6532 32.3645 39.6687 32.22 39.6391 32.1581C38.6684 30.1395 37.3408 28.389 35.6603 26.9081C35.6025 26.8571 35.4593 26.845 35.3867 26.8792C34.906 27.1044 34.4321 27.1138 33.9636 26.8644C33.8406 26.7986 33.77 26.8234 33.6813 26.9095C33.3983 27.1837 33.0931 27.4365 32.8276 27.7256C32.3026 28.2976 31.7984 28.8885 31.2969 29.4585ZM39.7009 22.292C39.5994 22.2437 39.4805 22.1838 39.3588 22.13C38.0218 21.5358 36.6215 21.2152 35.1588 21.1574C33.2329 21.0814 31.3998 21.4464 29.6655 22.29C29.5861 22.3283 29.5041 22.4272 29.4867 22.5112C29.4551 22.6651 29.5821 22.7028 29.7098 22.7525C30.6509 23.1175 31.5927 23.4825 32.5244 23.8731C32.8908 24.027 33.2309 24.2448 33.5784 24.4317C34.3367 23.8469 34.8139 23.8469 35.8034 24.429C36.8992 23.7817 38.0527 23.2526 39.2701 22.8728C39.5591 22.7807 39.7904 22.6934 39.7009 22.292ZM44.1295 24.6925C43.6919 24.6932 43.3659 25.0152 43.3625 25.4501C43.3591 25.8944 43.6939 26.2245 44.1429 26.2198C44.555 26.2158 44.8803 25.8823 44.8824 25.4622C44.8844 25.028 44.5557 24.6925 44.1295 24.6925ZM23.4952 31.1854C23.4979 30.7431 23.186 30.4198 22.7484 30.4104C22.333 30.4016 21.9801 30.7492 21.9767 31.1706C21.9733 31.5881 22.3229 31.947 22.7336 31.9477C23.1685 31.9477 23.4925 31.6237 23.4952 31.1854ZM41.9676 22.7283C41.9629 22.3048 41.6168 21.9707 41.1912 21.9788C40.7872 21.9869 40.4444 22.3364 40.4444 22.7404C40.4444 23.1854 40.7798 23.5135 41.2289 23.5061C41.6665 23.4987 41.9724 23.1767 41.9676 22.7283ZM41.4064 33.52C41.4037 33.0878 41.0716 32.7537 40.6434 32.7524C40.2354 32.751 39.8858 33.1127 39.8885 33.5335C39.8912 33.9516 40.2528 34.3126 40.6568 34.3011C41.0891 34.2884 41.4084 33.955 41.4064 33.52ZM28.7311 22.7613C28.7338 22.3189 28.4192 21.9882 27.9883 21.9801C27.5527 21.9714 27.2079 22.3156 27.2092 22.7565C27.2105 23.1659 27.5453 23.5047 27.9574 23.5128C28.3842 23.5209 28.7291 23.1868 28.7311 22.7613ZM41.442 43.4224C41.8668 43.4244 42.2103 43.085 42.2103 42.6628C42.2103 42.2225 41.8924 41.9005 41.4554 41.8978C41.0131 41.8951 40.6951 42.2084 40.6904 42.65C40.6851 43.0789 41.0171 43.4197 41.442 43.4224ZM30.218 31.3454C30.6456 31.3421 30.9776 31.0073 30.9803 30.5771C30.9823 30.1623 30.6294 29.8181 30.2053 29.8202C29.7818 29.8229 29.4396 30.1711 29.449 30.5899C29.4591 31.0288 29.7845 31.3481 30.218 31.3454ZM28.7318 42.5922C28.7311 42.1761 28.3782 41.8151 27.9715 41.8151C27.5614 41.8158 27.2085 42.1741 27.2092 42.5902C27.2099 43.0056 27.5621 43.3639 27.9715 43.3653C28.3876 43.3666 28.7324 43.0164 28.7318 42.5922ZM35.431 25.512C35.4297 25.073 35.1091 24.7483 34.6748 24.7463C34.2648 24.7443 33.9071 25.1039 33.9078 25.516C33.9092 25.9354 34.2614 26.2837 34.6788 26.2789C35.1212 26.2736 35.4324 25.9563 35.431 25.512Z" fill="#3340B0"/>
<defs>
<filter id="filter0_d_163_375" x="0" y="0" width="68" height="68" filterUnits="userSpaceOnUse" color-interpolation-filters="sRGB">
<feFlood flood-opacity="0" result="BackgroundImageFix"/>
<feColorMatrix in="SourceAlpha" type="matrix" values="0 0 0 0 0 0 0 0 0 0 0 0 0 0 0 0 0 0 127 0" result="hardAlpha"/>
<feOffset dy="1"/>
<feGaussianBlur stdDeviation="5"/>
<feComposite in2="hardAlpha" operator="out"/>
<feColorMatrix type="matrix" values="0 0 0 0 0 0 0 0 0 0 0 0 0 0 0 0 0 0 0.1 0"/>
<feBlend mode="normal" in2="BackgroundImageFix" result="effect1_dropShadow_163_375"/>
<feBlend mode="normal" in="SourceGraphic" in2="effect1_dropShadow_163_375" result="shape"/>
</filter>
</defs>
</svg>
