<svg width="68" height="68" viewBox="0 0 68 68" fill="none" xmlns="http://www.w3.org/2000/svg">
<g filter="url(#filter0_d_163_362)">
<circle cx="34" cy="33" r="24" fill="#F3F3FD"/>
</g>
<path d="M48.1884 28.1371C48.1716 28.1584 48.1525 28.1782 48.1379 28.2009C47.9686 28.4662 47.7458 28.5797 47.5003 28.5035C47.2365 28.4215 47.1105 28.2346 47.0863 27.9547C46.9346 26.1732 46.2318 24.6504 44.9304 23.4127C41.1491 19.8168 34.7781 21.6892 33.5426 26.7609C33.1857 28.2251 33.2868 29.6599 33.8679 31.0515C33.9874 31.338 33.9844 31.5828 33.8408 31.8569C33.5865 32.3412 33.3572 32.8381 33.1183 33.3305C33.0758 33.4185 33.0406 33.5093 32.9908 33.6237C33.8049 33.6237 34.5897 33.6112 35.3739 33.6325C35.568 33.6376 35.7937 33.7079 35.9462 33.8244C39.1463 36.2706 43.5087 35.6293 45.8676 32.3618C45.9629 32.2291 46.1065 32.0994 46.256 32.0452C46.4898 31.9595 46.7133 32.0474 46.8518 32.2636C46.994 32.4871 46.9646 32.7128 46.8152 32.9297C46.2428 33.7578 45.5481 34.4664 44.712 35.027C41.8585 36.9418 38.2589 36.8693 35.4735 34.854C35.3651 34.7756 35.2112 34.7258 35.0778 34.7243C34.1186 34.7133 33.1586 34.7192 32.1986 34.7177C31.6483 34.717 31.402 34.3337 31.6395 33.8413C31.9912 33.11 32.3584 32.3859 32.6991 31.6495C32.7592 31.5205 32.7687 31.3278 32.7196 31.1944C30.988 26.4597 33.9969 21.3206 38.9719 20.5269C43.2684 19.8418 47.3516 22.7701 48.0858 27.0614C48.113 27.2204 48.1547 27.3765 48.1892 27.534C48.1884 27.7348 48.1884 27.9363 48.1884 28.1371Z" fill="#3340B0"/>
<path d="M20.3624 42.0283C20.1462 41.7293 20.0854 41.3863 20.103 41.0199C20.1147 40.7737 20.103 40.5267 20.1059 40.2798C20.1132 39.5931 20.5976 39.0355 21.2747 38.938C21.4191 38.9175 21.5656 38.908 21.7115 38.908C23.3471 38.9058 24.9834 38.9058 26.6191 38.908C26.7832 38.908 26.9466 38.9219 27.1306 38.9307C27.1306 38.5643 27.1298 38.1949 27.1306 37.8263C27.1335 36.9382 27.6882 36.3527 28.572 36.3468C30.3175 36.3358 32.0631 36.3351 33.8086 36.3475C34.6829 36.3534 35.242 36.9367 35.2376 37.8073C35.2354 38.2074 35.2743 38.6273 35.1665 39.0018C35.0705 39.3359 35.0823 39.5953 35.1621 39.931C35.2801 40.4263 35.2369 40.9606 35.2625 41.4809C36.6761 41.4809 38.1153 41.4809 39.5546 41.4809C39.9752 41.4809 40.3958 41.4743 40.8157 41.4823C41.6057 41.4977 42.1707 42.0092 42.2286 42.7962C42.2579 43.1949 42.2498 43.6016 42.2073 43.9995C42.1414 44.6151 41.6416 45.0804 41.0268 45.1485C40.9183 45.1603 40.8084 45.1647 40.6985 45.1654C39.0167 45.1661 37.3349 45.1749 35.6538 45.1573C35.3724 45.1544 35.0932 45.035 34.8111 44.9771C34.732 44.9609 34.6433 44.9573 34.5649 44.9741C34.3011 45.0313 34.0402 45.1544 33.7779 45.1573C32.0506 45.1742 30.3234 45.1735 28.5962 45.1581C28.3412 45.1559 28.0891 45.0401 27.8326 44.9888C27.7381 44.9697 27.6333 44.9705 27.538 44.9895C27.2823 45.0408 27.0294 45.1559 26.7744 45.1581C25.0377 45.1735 23.3017 45.1698 21.5649 45.1647C20.6606 45.1617 20.1059 44.5909 20.1044 43.6837C20.1044 43.4829 20.1044 43.2814 20.1044 43.0806C20.1052 42.5339 20.1117 42.5068 20.3624 42.0283ZM24.1627 40.0306C23.2943 40.0306 22.426 40.0343 21.5576 40.0284C21.3157 40.027 21.2007 40.1318 21.2007 40.3699C21.2007 40.6257 21.2014 40.8821 21.2007 41.1379C21.2 41.3761 21.3157 41.4911 21.5568 41.4816C21.6844 41.4765 21.8126 41.4809 21.9408 41.4809C23.5406 41.4809 25.1403 41.4816 26.74 41.4801C27.0661 41.4801 27.1276 41.4164 27.1306 41.0983C27.1328 40.8697 27.1328 40.6411 27.1306 40.4124C27.1276 40.0922 27.0675 40.0314 26.7414 40.0314C25.8811 40.0292 25.0223 40.0299 24.1627 40.0306ZM24.1737 44.0523C25.0421 44.0523 25.9104 44.0493 26.7788 44.0545C27.0192 44.0559 27.1364 43.9592 27.1306 43.713C27.1247 43.4572 27.124 43.2007 27.1306 42.945C27.1372 42.6988 27.0207 42.5991 26.7818 42.5991C25.0355 42.6013 23.2899 42.6013 21.5437 42.5991C21.2982 42.5991 21.1963 42.72 21.1985 42.9538C21.2007 43.1912 21.1963 43.4294 21.1992 43.6668C21.2036 43.9724 21.2828 44.0508 21.5942 44.0508C22.4553 44.0537 23.3148 44.0523 24.1737 44.0523ZM31.1815 37.4548C30.3234 37.4548 29.4653 37.4592 28.6072 37.4519C28.3514 37.4497 28.2356 37.5603 28.2356 37.8088C28.2364 38.0645 28.2342 38.3203 28.2371 38.5753C28.2393 38.7958 28.3434 38.9072 28.5749 38.9072C30.3183 38.9043 32.0616 38.9043 33.805 38.9065C34.0402 38.9065 34.134 38.7834 34.1355 38.5665C34.1377 38.329 34.1391 38.0916 34.1355 37.8542C34.1311 37.534 34.0505 37.4548 33.7273 37.4541C32.8794 37.4533 32.0308 37.4548 31.1815 37.4548ZM31.1749 44.0523C32.0418 44.0523 32.9095 44.0486 33.7764 44.0545C34.019 44.0559 34.1333 43.9482 34.1362 43.7144C34.1391 43.4587 34.1369 43.2029 34.1369 42.9479C34.1369 42.7142 34.0292 42.5991 33.7852 42.5991C32.0506 42.602 30.3168 42.602 28.5823 42.5991C28.3353 42.5984 28.2356 42.7208 28.2364 42.9523C28.2364 43.1898 28.2327 43.4272 28.2371 43.6646C28.2422 43.9731 28.3214 44.0515 28.6284 44.0515C29.477 44.0537 30.3263 44.0523 31.1749 44.0523ZM31.1947 40.0299C30.3278 40.0299 29.4602 40.0343 28.5933 40.027C28.3492 40.0248 28.2378 40.1332 28.2364 40.3684C28.2349 40.6242 28.2349 40.8792 28.2364 41.135C28.2371 41.3687 28.3448 41.4823 28.5896 41.4816C30.3234 41.4779 32.058 41.4779 33.7918 41.4809C34.0402 41.4816 34.1362 41.3548 34.1369 41.1254C34.1369 40.888 34.1406 40.6506 34.1362 40.4139C34.1311 40.1076 34.0519 40.0314 33.7412 40.0306C32.8926 40.0292 32.044 40.0299 31.1947 40.0299ZM38.1659 44.0523C39.0328 44.0523 39.9005 44.0479 40.7674 44.0552C41.026 44.0574 41.1338 43.9489 41.1257 43.6947C41.1169 43.4396 41.1206 43.1832 41.125 42.9281C41.1286 42.7149 41.0348 42.602 40.8172 42.602C39.0643 42.602 37.3122 42.602 35.5593 42.6013C35.3461 42.6013 35.2391 42.7032 35.2405 42.9193C35.2427 43.1656 35.2391 43.4125 35.2413 43.6587C35.2435 43.9892 35.3072 44.0515 35.6472 44.0523C36.4863 44.053 37.3261 44.0523 38.1659 44.0523Z" fill="#3340B0"/>
<path d="M23.8939 27.8733C23.326 27.8733 22.7976 27.8696 22.2693 27.8747C21.9959 27.8777 21.7578 27.8286 21.6339 27.5501C21.5123 27.276 21.6244 27.0628 21.8032 26.8547C23.1435 25.2967 24.4787 23.7344 25.8175 22.175C26.1913 21.7397 26.5064 21.7404 26.8772 22.1728C28.197 23.7124 29.516 25.2528 30.8351 26.7931C30.8944 26.8627 30.9567 26.9302 31.0073 27.0056C31.2564 27.3779 31.0366 27.8447 30.5874 27.8638C30.1132 27.8843 29.6376 27.8711 29.1621 27.8733C29.0536 27.8733 28.9451 27.8733 28.7957 27.8733C28.7957 28.0015 28.7957 28.1078 28.7957 28.214C28.7957 30.1421 28.7957 32.0693 28.7957 33.9973C28.7957 34.6349 28.644 34.7844 28.0013 34.7844C26.8596 34.7844 25.7171 34.7858 24.5754 34.7836C24.0866 34.7829 23.8939 34.5902 23.8939 34.1051C23.8932 32.1499 23.8932 30.1948 23.8932 28.2397C23.8939 28.1312 23.8939 28.022 23.8939 27.8733ZM23.3377 26.7697C23.6799 26.7697 23.9591 26.7697 24.2383 26.7697C24.837 26.7697 25.0004 26.9331 25.0004 27.534C25.0012 29.4723 25.0004 31.4098 25.0004 33.3481C25.0004 33.4536 25.0004 33.5591 25.0004 33.6632C25.9165 33.6632 26.79 33.6632 27.6818 33.6632C27.6818 33.5364 27.6818 33.428 27.6818 33.3195C27.6818 31.3812 27.6818 29.4437 27.6818 27.5054C27.6818 26.9551 27.8701 26.7704 28.4263 26.7697C28.7143 26.7697 29.003 26.7697 29.3555 26.7697C28.3303 25.5723 27.3476 24.4247 26.3466 23.2559C25.3449 24.4262 24.3622 25.5737 23.3377 26.7697Z" fill="#3340B0"/>
<path d="M43.6994 25.1422C43.6649 25.2044 43.6122 25.3532 43.5169 25.4661C41.6277 27.7187 39.7349 29.9677 37.8406 32.2159C37.5885 32.5157 37.2536 32.5648 37.0022 32.3522C36.7458 32.1361 36.7392 31.8129 36.9964 31.5066C38.8863 29.2554 40.7791 27.0057 42.669 24.7545C42.8493 24.5398 43.0611 24.4211 43.341 24.5244C43.5799 24.6123 43.7023 24.7933 43.6994 25.1422Z" fill="#3340B0"/>
<path d="M36.0584 26.2494C36.0635 25.1605 36.9407 24.2972 38.0392 24.3002C39.1215 24.3024 40.0141 25.1957 40.0082 26.2722C40.0023 27.3413 39.09 28.239 38.0172 28.2302C36.9326 28.2207 36.0532 27.3318 36.0584 26.2494ZM38.0113 27.1083C38.5016 27.1149 38.8951 26.739 38.8965 26.2626C38.898 25.8046 38.5089 25.4111 38.0435 25.4001C37.5738 25.3884 37.162 25.7878 37.1605 26.2575C37.1583 26.7236 37.5372 27.1024 38.0113 27.1083Z" fill="#3340B0"/>
<path d="M44.3495 30.7305C44.3502 31.8253 43.4855 32.6901 42.3863 32.693C41.2915 32.6952 40.4055 31.8239 40.4033 30.743C40.4011 29.6592 41.2812 28.7813 42.3738 28.7776C43.4694 28.7732 44.3488 29.6423 44.3495 30.7305ZM42.3709 29.8863C41.9012 29.8893 41.5099 30.2725 41.5069 30.7327C41.504 31.1981 41.9166 31.5996 42.39 31.5945C42.8546 31.5887 43.2503 31.1981 43.2532 30.7408C43.2554 30.2718 42.8546 29.8834 42.3709 29.8863Z" fill="#3340B0"/>
<path d="M47.3826 29.8351C47.6999 29.8322 47.9439 30.0733 47.938 30.3847C47.9329 30.6837 47.6918 30.927 47.3979 30.9299C47.0953 30.9329 46.8315 30.6712 46.8366 30.373C46.8418 30.0777 47.0858 29.8373 47.3826 29.8351Z" fill="#3340B0"/>
<defs>
<filter id="filter0_d_163_362" x="0" y="0" width="68" height="68" filterUnits="userSpaceOnUse" color-interpolation-filters="sRGB">
<feFlood flood-opacity="0" result="BackgroundImageFix"/>
<feColorMatrix in="SourceAlpha" type="matrix" values="0 0 0 0 0 0 0 0 0 0 0 0 0 0 0 0 0 0 127 0" result="hardAlpha"/>
<feOffset dy="1"/>
<feGaussianBlur stdDeviation="5"/>
<feComposite in2="hardAlpha" operator="out"/>
<feColorMatrix type="matrix" values="0 0 0 0 0 0 0 0 0 0 0 0 0 0 0 0 0 0 0.1 0"/>
<feBlend mode="normal" in2="BackgroundImageFix" result="effect1_dropShadow_163_362"/>
<feBlend mode="normal" in="SourceGraphic" in2="effect1_dropShadow_163_362" result="shape"/>
</filter>
</defs>
</svg>
