<svg width="47" height="40" viewBox="0 0 47 40" fill="none" xmlns="http://www.w3.org/2000/svg">
<path d="M30.3975 17.0835C31.0225 16.6147 31.585 16.0522 32.0225 15.396C31.46 15.646 30.8037 15.8335 30.1475 15.896C30.835 15.4897 31.335 14.8647 31.585 14.0835C30.96 14.4585 30.2412 14.7397 29.5225 14.896C28.8975 14.2397 28.0537 13.8647 27.1162 13.8647C25.3037 13.8647 23.835 15.3335 23.835 17.146C23.835 17.396 23.8662 17.646 23.9287 17.896C21.21 17.7397 18.7725 16.4272 17.1475 14.4585C16.8662 14.9272 16.71 15.4897 16.71 16.1147C16.71 17.2397 17.2725 18.2397 18.1787 18.8335C17.6475 18.8022 17.1162 18.6772 16.6787 18.4272V18.4585C16.6787 20.0522 17.8037 21.3647 19.3037 21.6772C19.0537 21.7397 18.7412 21.8022 18.46 21.8022C18.2412 21.8022 18.0537 21.771 17.835 21.7397C18.2412 23.0522 19.46 23.9897 20.8975 24.021C19.7725 24.896 18.3662 25.4272 16.835 25.4272C16.5537 25.4272 16.3037 25.396 16.0537 25.3647C17.4912 26.3022 19.21 26.8335 21.085 26.8335C27.1162 26.8335 30.3975 21.8647 30.3975 17.521C30.3975 17.3647 30.3975 17.2397 30.3975 17.0835Z" fill="#B6B9BC"/>
</svg>
